<?xml version="1.0" encoding="utf-8"?>
<!-- Generator: Adobe Illustrator 18.0.0, SVG Export Plug-In . SVG Version: 6.00 Build 0)  -->
<!DOCTYPE svg PUBLIC "-//W3C//DTD SVG 1.1//EN" "http://www.w3.org/Graphics/SVG/1.1/DTD/svg11.dtd">
<svg version="1.1" id="Layer_1" xmlns="http://www.w3.org/2000/svg" xmlns:xlink="http://www.w3.org/1999/xlink" x="0px" y="0px"
	 viewBox="0 0 16 16" enable-background="new 0 0 16 16" xml:space="preserve">
<path fill="#A6D1B5" d="M0.9,8c0.2,0.2,0.4,0.2,0.6,0.2c0.2,0,0.4-0.1,0.6-0.2l0,0L8,2.7L14,8l0,0c0.2,0.2,0.4,0.2,0.6,0.2
	c0.2,0,0.4-0.1,0.6-0.2c0.2-0.2,0.2-0.4,0.2-0.6c0-0.2-0.1-0.4-0.2-0.6L8.6,1.1l0,0C8.5,0.9,8.3,0.8,8.1,0.8l0,0l0,0l0,0l0,0
	c-0.2,0-0.4,0.1-0.6,0.2l0,0L0.9,6.8C0.8,7,0.7,7.2,0.7,7.4C0.7,7.6,0.8,7.8,0.9,8z"/>
<path fill="#A6D1B5" d="M15.4,14.4c0-0.2-0.1-0.4-0.2-0.6L8.6,8l0,0l0,0C8.5,7.9,8.3,7.8,8.1,7.8l0,0l0,0l0,0l0,0
	C7.8,7.8,7.6,7.9,7.4,8l0,0l-6.5,5.8c-0.2,0.2-0.2,0.4-0.2,0.6c0,0.2,0.1,0.4,0.2,0.6c0.2,0.2,0.4,0.2,0.6,0.2
	c0.2,0,0.4-0.1,0.6-0.2l0,0L8,9.7l5.9,5.3l0,0c0.2,0.2,0.4,0.2,0.6,0.2c0.2,0,0.4-0.1,0.6-0.2C15.3,14.8,15.4,14.6,15.4,14.4z"/>
<path fill="#333333" d="M15.4,13.6L8.9,7.8l0,0C8.6,7.6,8.3,7.5,8.1,7.5l0,0l0,0c-0.3,0-0.6,0.1-0.8,0.3l0,0l-6.5,5.8l0,0
	c-0.2,0.2-0.3,0.5-0.3,0.8c0,0.3,0.1,0.6,0.3,0.8c0.2,0.2,0.5,0.3,0.8,0.3c0.3,0,0.6-0.1,0.8-0.3l0,0L8,10.1l5.7,5.1l0,0
	c0.2,0.2,0.5,0.3,0.8,0.3c0.3,0,0.6-0.1,0.8-0.3c0.2-0.2,0.3-0.5,0.3-0.8C15.7,14.1,15.6,13.8,15.4,13.6L15.4,13.6z M14,14.9
	L14,14.9L8,9.7l-5.9,5.3l0,0c-0.2,0.2-0.4,0.2-0.6,0.2c-0.2,0-0.4-0.1-0.6-0.2c-0.2-0.2-0.2-0.4-0.2-0.6c0-0.2,0.1-0.4,0.2-0.6
	L7.4,8l0,0C7.6,7.9,7.8,7.8,8,7.8l0,0l0,0l0,0l0,0c0.2,0,0.4,0.1,0.6,0.2l0,0l0,0l6.5,5.8c0.2,0.2,0.2,0.4,0.2,0.6
	c0,0.2-0.1,0.4-0.2,0.6c-0.2,0.2-0.4,0.2-0.6,0.2C14.3,15.2,14.1,15.1,14,14.9z"/>
<path fill="#333333" d="M1.5,8.5c0.3,0,0.6-0.1,0.8-0.3l0,0L8,3.1l5.7,5.1l0,0c0.2,0.2,0.5,0.3,0.8,0.3c0.3,0,0.6-0.1,0.8-0.3
	c0.2-0.2,0.3-0.5,0.3-0.8c0-0.3-0.1-0.6-0.3-0.8l0,0l0,0L8.9,0.8l0,0C8.6,0.6,8.3,0.5,8.1,0.5l0,0l0,0c-0.3,0-0.6,0.1-0.8,0.3l0,0
	L0.7,6.6l0,0C0.5,6.8,0.4,7.1,0.4,7.4c0,0.3,0.1,0.6,0.3,0.8C0.9,8.4,1.2,8.5,1.5,8.5z M0.9,6.8l6.5-5.8l0,0C7.6,0.9,7.8,0.8,8,0.8
	l0,0l0,0l0,0l0,0c0.2,0,0.4,0.1,0.6,0.2l0,0l6.5,5.8c0.2,0.2,0.2,0.4,0.2,0.6c0,0.2-0.1,0.4-0.2,0.6c-0.2,0.2-0.4,0.2-0.6,0.2
	c-0.2,0-0.4-0.1-0.6-0.2l0,0L8,2.7L2.1,8l0,0C1.9,8.1,1.7,8.2,1.5,8.2C1.3,8.2,1.1,8.1,0.9,8C0.8,7.8,0.7,7.6,0.7,7.4
	C0.7,7.2,0.8,7,0.9,6.8z"/>
</svg>
