<?xml version="1.0" encoding="utf-8"?>
<!-- Generator: Adobe Illustrator 18.0.0, SVG Export Plug-In . SVG Version: 6.00 Build 0)  -->
<!DOCTYPE svg PUBLIC "-//W3C//DTD SVG 1.1//EN" "http://www.w3.org/Graphics/SVG/1.1/DTD/svg11.dtd">
<svg version="1.1" id="Layer_1" xmlns="http://www.w3.org/2000/svg" xmlns:xlink="http://www.w3.org/1999/xlink" x="0px" y="0px"
	 viewBox="0 0 16 16" enable-background="new 0 0 16 16" xml:space="preserve">
<path fill="#A6D1B5" d="M15.1,8c-0.2-0.2-0.4-0.2-0.6-0.2c-0.2,0-0.4,0.1-0.6,0.2l0,0L8,13.3L2.1,8l0,0C1.9,7.9,1.7,7.8,1.5,7.8
	C1.3,7.8,1.1,7.9,0.9,8C0.8,8.2,0.7,8.4,0.7,8.6c0,0.2,0.1,0.4,0.2,0.6l6.5,5.8l0,0c0.2,0.2,0.4,0.2,0.6,0.2l0,0l0,0l0,0l0,0
	c0.2,0,0.4-0.1,0.6-0.2l0,0l6.5-5.8c0.2-0.2,0.2-0.4,0.2-0.6C15.4,8.4,15.3,8.2,15.1,8z"/>
<path fill="#A6D1B5" d="M0.7,1.6c0,0.2,0.1,0.4,0.2,0.6L7.4,8l0,0l0,0C7.6,8.1,7.8,8.2,8,8.2l0,0l0,0l0,0l0,0c0.2,0,0.4-0.1,0.6-0.2
	l0,0l6.5-5.8c0.2-0.2,0.2-0.4,0.2-0.6c0-0.2-0.1-0.4-0.2-0.6c-0.2-0.2-0.4-0.2-0.6-0.2c-0.2,0-0.4,0.1-0.6,0.2l0,0L8,6.3L2.1,1.1
	l0,0C1.9,0.9,1.7,0.8,1.5,0.8c-0.2,0-0.4,0.1-0.6,0.2C0.8,1.2,0.7,1.4,0.7,1.6z"/>
<path fill="#333333" d="M0.7,2.4l6.5,5.8l0,0C7.4,8.4,7.7,8.5,8,8.5l0,0l0,0c0.3,0,0.6-0.1,0.8-0.3l0,0l6.5-5.8l0,0
	c0.2-0.2,0.3-0.5,0.3-0.8c0-0.3-0.1-0.6-0.3-0.8c-0.2-0.2-0.5-0.3-0.8-0.3c-0.3,0-0.6,0.1-0.8,0.3l0,0L8,5.9L2.3,0.8l0,0
	C2.1,0.6,1.8,0.5,1.5,0.5c-0.3,0-0.6,0.1-0.8,0.3C0.5,1,0.4,1.3,0.4,1.6C0.4,1.9,0.5,2.2,0.7,2.4L0.7,2.4z M2.1,1.1L2.1,1.1L8,6.3
	L14,1.1l0,0c0.2-0.2,0.4-0.2,0.6-0.2c0.2,0,0.4,0.1,0.6,0.2c0.2,0.2,0.2,0.4,0.2,0.6c0,0.2-0.1,0.4-0.2,0.6L8.6,8l0,0
	C8.5,8.1,8.3,8.2,8.1,8.2l0,0l0,0l0,0l0,0C7.8,8.2,7.6,8.1,7.4,8l0,0l0,0L0.9,2.2C0.8,2.1,0.7,1.8,0.7,1.6c0-0.2,0.1-0.4,0.2-0.6
	c0.2-0.2,0.4-0.2,0.6-0.2C1.7,0.8,1.9,0.9,2.1,1.1z"/>
<path fill="#333333" d="M14.6,7.5c-0.3,0-0.6,0.1-0.8,0.3l0,0L8,12.9L2.3,7.8l0,0C2.1,7.6,1.8,7.5,1.5,7.5c-0.3,0-0.6,0.1-0.8,0.3
	C0.5,8,0.4,8.3,0.4,8.6c0,0.3,0.1,0.6,0.3,0.8l0,0l0,0l6.5,5.8l0,0c0.2,0.2,0.5,0.3,0.8,0.3l0,0l0,0c0.3,0,0.6-0.1,0.8-0.3l0,0
	l6.5-5.8l0,0c0.2-0.2,0.3-0.5,0.3-0.8c0-0.3-0.1-0.6-0.3-0.8C15.1,7.6,14.9,7.5,14.6,7.5z M15.1,9.2l-6.5,5.8l0,0
	c-0.2,0.2-0.4,0.2-0.6,0.2l0,0l0,0l0,0l0,0c-0.2,0-0.4-0.1-0.6-0.2l0,0L0.9,9.2C0.8,9,0.7,8.8,0.7,8.6c0-0.2,0.1-0.4,0.2-0.6
	c0.2-0.2,0.4-0.2,0.6-0.2c0.2,0,0.4,0.1,0.6,0.2l0,0L8,13.3L14,8l0,0c0.2-0.2,0.4-0.2,0.6-0.2c0.2,0,0.4,0.1,0.6,0.2
	c0.2,0.2,0.2,0.4,0.2,0.6C15.4,8.8,15.3,9,15.1,9.2z"/>
</svg>
