<svg xmlns="http://www.w3.org/2000/svg" xmlns:xlink="http://www.w3.org/1999/xlink" viewBox="0 0 530 800">
    <symbol id="waffle-iron">
        <path id="iron" display="inline" fill="#ABABAB" d="M530.1,265.8c0-146.1-118.4-264.5-264.5-264.5S1.1,119.7,1.1,265.8
            c0,132.1,96.9,241.6,223.5,261.3v230.7c0,22.6,18.5,41,41,41s41-18.5,41-41V527.1C433.2,507.4,530.1,397.9,530.1,265.8z"/>
    </symbol>
    <symbol id="bowl">
        <path display="inline" fill="#D2D3D4" d="M264.2,1.3C125.3,1.3,12.7,113.9,12.7,252.8c0,138.9,112.6,251.5,251.5,251.5
            s251.5-112.6,251.5-251.5C515.6,113.9,403,1.3,264.2,1.3z M264.2,458C144,458,46.7,360.6,46.7,240.5S144,23,264.2,23
            c120.1,0,217.5,97.4,217.5,217.5S384.3,458,264.2,458z"/>
        <circle display="inline" fill="#EFEEEE" cx="264.2" cy="240.5" r="217.5"/>
    </symbol>
    <symbol id="waffle">
        <path display="inline" fill="#F4F4F4" d="M257.4,446.9V227.6H37.9c0.6,38.1,10.7,73.9,28.2,105
            C103.7,399.9,175.1,445.7,257.4,446.9z M108.7,364.3L108.7,364.3L108.7,364.3l-0.2-0.2c-1.3-1.5-2.6-3-3.9-4.5h0.1h4V364.3z
             M196,244.5h44.6v39H196V244.5z M196,300.2h44.6v39H196V300.2z M196,359.6h44.6v39H196V359.6z M196,421.3v-5h44.6V431v0
            c-0.4,0-0.8-0.1-1.2-0.2c-3.2-0.4-6.5-0.8-9.7-1.3c-1.2-0.2-2.5-0.4-3.7-0.7c-2.4-0.4-4.7-0.8-7.1-1.3c-1.4-0.3-2.8-0.6-4.2-1
            c-2.1-0.5-4.3-1-6.4-1.6c-1.5-0.4-2.9-0.8-4.4-1.2c-2-0.6-4-1.2-6-1.8C197.3,421.7,196.6,421.6,196,421.3L196,421.3z M130,244.5
            h44.6v39H130V244.5z M130,300.2h44.6v39H130V300.2z M130,384.7v-25h44.6v39h-25.5H149c-0.4-0.3-0.8-0.6-1.3-0.9
            c-2.1-1.4-4.2-2.9-6.3-4.3c-0.9-0.7-1.8-1.3-2.8-2C135.8,389.3,132.9,387,130,384.7L130,384.7L130,384.7z M64.1,283.5v-39h44.6v39
            H64.1z M89.2,339.2c-0.6-0.9-1.1-1.8-1.7-2.7c-1.2-1.8-2.3-3.6-3.4-5.4c-0.7-1.2-1.4-2.5-2.2-3.8c-1-1.8-2-3.6-3-5.4
            c-0.7-1.3-1.4-2.6-2-4c-0.9-1.8-1.8-3.6-2.7-5.5c-0.6-1.4-1.3-2.8-1.9-4.2c-0.8-1.9-1.6-3.7-2.4-5.6c-0.3-0.8-0.7-1.6-1-2.4H69
            h39.7v39H89.2L89.2,339.2z"/>
        <path display="inline" fill="#F4F4F4" d="M257.4,1.3C137,3.1,39.8,100.2,37.9,220.6h219.5V1.3z M108.7,204.6H64.1v-39h44.6V204.6z
             M108.7,148h-39h-0.1c0.2-0.5,0.5-1.1,0.7-1.6c0.8-1.9,1.6-3.9,2.5-5.8c0.6-1.3,1.2-2.7,1.8-4c0.9-2,1.9-4,3-5.9
            c0.6-1.2,1.2-2.4,1.8-3.5c1.2-2.3,2.5-4.5,3.8-6.7c0.5-0.8,0.9-1.7,1.4-2.5c1.8-3,3.7-6,5.7-8.9l0.1-0.1h0h18.3V148z M108.7,85.8
            v2.8h-2.4h-0.1c0.8-0.9,1.6-1.8,2.4-2.7L108.7,85.8L108.7,85.8L108.7,85.8z M174.6,204.6H130v-39h44.6V204.6z M174.6,148H130v-39
            h44.6V148z M174.6,88.6H130V65.4v0l0.1,0c3.1-2.6,6.3-5,9.6-7.4c0.9-0.7,1.9-1.3,2.8-2c2.5-1.8,5-3.5,7.6-5.1
            c0.6-0.4,1.2-0.8,1.8-1.2h0.1h22.6V88.6z M240.5,204.6H196v-39h44.6V204.6z M240.5,148H196v-39h44.6V148z M240.5,88.6H196v-39h44.6
            V88.6z M240.5,19.1v13.8H196v-4.1v-0.1c0.7-0.2,1.3-0.4,2-0.6c2-0.6,4-1.3,6-1.8c1.4-0.4,2.9-0.8,4.4-1.2c2.1-0.6,4.2-1.1,6.3-1.6
            c1.4-0.3,2.8-0.7,4.2-1c2.3-0.5,4.7-0.9,7-1.3c1.3-0.2,2.5-0.5,3.8-0.7c3.2-0.5,6.4-0.9,9.6-1.3C239.7,19.2,240.1,19.1,240.5,19.1
            L240.5,19.1z"/>
        <path display="inline" fill="#F4F4F4" d="M264.5,446.9c120.1-2,217.1-99.1,219-219.2h-219V446.9z M419.7,244.5h44.6v24.1v0.2
            c-0.6,2.6-1.2,5.1-1.8,7.7c-0.1,0.4-0.2,0.8-0.3,1.2c-0.5,1.9-1,3.8-1.6,5.7h-0.1h-40.8V244.5z M419.7,300.2h35.1h0.1
            c-0.3,0.8-0.7,1.6-1,2.4c-0.8,1.9-1.5,3.8-2.4,5.6c-0.6,1.4-1.2,2.8-1.9,4.2c-0.9,1.8-1.8,3.7-2.7,5.5c-0.7,1.3-1.3,2.7-2,4
            c-1,1.8-2,3.6-3,5.4c-0.7,1.3-1.4,2.5-2.2,3.8c-1.1,1.8-2.3,3.6-3.4,5.4c-0.6,0.9-1.1,1.8-1.7,2.7h0h-14.9V300.2z M353.8,244.5
            h44.6v39h-44.6V244.5z M353.8,300.2h44.6v39h-44.6V300.2z M353.8,359.6h44.6v21v0.1c-0.5,0.4-1,0.8-1.4,1.2
            c-2.9,2.5-5.8,4.9-8.8,7.2c-0.5,0.4-1.1,0.9-1.6,1.3c-3.5,2.6-7,5.1-10.7,7.5c-0.4,0.2-0.7,0.5-1,0.7h-0.1h-20.8V359.6z
             M287.9,244.5h44.6v39h-44.6V244.5z M287.9,300.2h44.6v39h-44.6V300.2z M287.9,359.6h44.6v39h-44.6V359.6z M287.9,430.4v-14.1h44.6
            v3.4v0c-0.8,0.3-1.6,0.5-2.4,0.8c-2.5,0.9-5,1.7-7.6,2.5c-1.3,0.4-2.5,0.7-3.8,1.1c-2.2,0.6-4.4,1.3-6.7,1.8
            c-1.4,0.4-2.8,0.7-4.2,1c-2.1,0.5-4.3,1-6.5,1.4c-1.5,0.3-3,0.5-4.5,0.8c-2.1,0.4-4.3,0.7-6.4,1
            C289.5,430.2,288.7,430.3,287.9,430.4L287.9,430.4z"/>
        <path display="inline" fill="#F4F4F4" d="M483.5,220.6c-0.5-33.6-8.5-65.4-22.3-93.9C425.5,53.5,351,2.8,264.5,1.3v219.2H483.5z
             M414.1,84.8L414.1,84.8c0.2,0.2,0.5,0.5,0.7,0.7c0.3,0.3,0.5,0.6,0.8,0.9c0.7,0.7,1.3,1.5,2,2.2h-0.1h-3.4V84.8z M414.1,109h19.2
            h0l0.1,0.1c2,2.9,3.9,5.9,5.7,8.9c0.5,0.8,1,1.7,1.5,2.5c1.3,2.2,2.6,4.4,3.8,6.6c0.6,1.2,1.2,2.4,1.8,3.5c1,2,2,3.9,2.9,5.9
            c0.6,1.3,1.2,2.6,1.8,4c0.9,1.9,1.7,3.8,2.5,5.8c0.2,0.5,0.5,1.1,0.7,1.6H454h-39.9V109z M414.1,165.6h44.6v39h-44.6V165.6z
             M348.2,49.6h23.5h0.1c0.7,0.4,1.3,0.9,1.9,1.3c2.4,1.5,4.7,3.1,7,4.7c1,0.7,2.1,1.4,3.1,2.2c2.6,1.9,5.1,3.8,7.5,5.8
            c0.5,0.4,1,0.7,1.4,1.1v0v23.9h-44.6V49.6z M348.2,109h44.6v39h-44.6V109z M348.2,165.6h44.6v39h-44.6V165.6z M282.3,19L282.3,19
            c0.1,0,0.2,0,0.4,0c3.7,0.4,7.3,0.8,10.9,1.4c0.7,0.1,1.4,0.3,2.1,0.4c2.9,0.5,5.8,1,8.7,1.6c1.3,0.3,2.5,0.6,3.8,0.9
            c2.3,0.5,4.5,1,6.8,1.6c1.4,0.4,2.8,0.8,4.2,1.2c2.1,0.6,4.1,1.2,6.2,1.9c0.5,0.2,1.1,0.3,1.6,0.5v0.1v4.4h-44.6V19z M282.3,49.6
            h44.6v39h-44.6V49.6z M282.3,109h44.6v39h-44.6V109z M282.3,165.6h44.6v39h-44.6V165.6z"/>
        <path display="inline" fill="#EAEAEA" d="M90.4,109l-0.1,0.1c-2,2.9-3.9,5.9-5.7,8.9c-0.5,0.8-1,1.7-1.4,2.5
            c-1.3,2.2-2.6,4.4-3.8,6.7c-0.6,1.2-1.2,2.4-1.8,3.5c-1,2-2,3.9-3,5.9c-0.6,1.3-1.2,2.6-1.8,4c-0.9,1.9-1.7,3.8-2.5,5.8
            c-0.2,0.5-0.5,1.1-0.7,1.6h0.1h39v-39H90.4L90.4,109z"/>
        <path display="inline" fill="#EAEAEA" d="M104.6,359.6c1.3,1.5,2.6,3,3.9,4.5l0.1,0.2l0,0v0v-4.7H104.6L104.6,359.6z"/>
        <path display="inline" fill="#EAEAEA" d="M151.9,49.6c-0.6,0.4-1.2,0.8-1.8,1.2c-2.6,1.7-5.1,3.4-7.6,5.1c-0.9,0.7-1.9,1.3-2.8,2
            c-3.3,2.4-6.5,4.8-9.6,7.4l-0.1,0v0v23.2h44.6v-39H151.9L151.9,49.6z"/>
        <path display="inline" fill="#EAEAEA" d="M417.5,88.6c-0.6-0.7-1.3-1.5-2-2.2c-0.3-0.3-0.5-0.6-0.8-0.9c-0.2-0.3-0.5-0.5-0.7-0.8v0
            v3.8H417.5L417.5,88.6z"/>
        <path display="inline" fill="#EAEAEA" d="M374.7,398.6c0.4-0.2,0.7-0.5,1-0.7c3.6-2.4,7.2-4.9,10.7-7.5c0.6-0.4,1.1-0.9,1.6-1.3
            c3-2.3,6-4.7,8.8-7.2c0.5-0.4,1-0.8,1.4-1.2v-0.1v-21h-44.6v39h20.8H374.7z"/>
        <path display="inline" fill="#EAEAEA" d="M454.1,148c-0.2-0.5-0.5-1.1-0.7-1.6c-0.8-1.9-1.6-3.9-2.5-5.8c-0.6-1.3-1.2-2.7-1.8-4
            c-0.9-2-1.9-4-2.9-5.9c-0.6-1.2-1.2-2.4-1.8-3.5c-1.2-2.2-2.5-4.4-3.8-6.6c-0.5-0.8-1-1.7-1.5-2.5c-1.8-3-3.7-6-5.7-8.9l-0.1-0.1h0
            h-19.2v39H454.1L454.1,148z"/>
        <path display="inline" fill="#EAEAEA" d="M434.6,339.2c0.6-0.9,1.1-1.8,1.7-2.7c1.2-1.8,2.3-3.6,3.4-5.4c0.7-1.2,1.4-2.5,2.2-3.8
            c1-1.8,2-3.6,3-5.4c0.7-1.3,1.4-2.6,2-4c0.9-1.8,1.8-3.6,2.7-5.5c0.6-1.4,1.3-2.8,1.9-4.2c0.8-1.9,1.6-3.7,2.4-5.6
            c0.3-0.8,0.7-1.6,1-2.4h-0.1h-35.1v39H434.6L434.6,339.2z"/>
        <path display="inline" fill="#EAEAEA" d="M460.5,283.5c0.6-1.9,1.1-3.8,1.6-5.7c0.1-0.4,0.2-0.8,0.3-1.2c0.7-2.5,1.3-5.1,1.8-7.7
            v-0.2v-24.1h-44.6v39H460.5L460.5,283.5z"/>
        <path display="inline" fill="#EAEAEA" d="M461.1,126.7c13.8,28.4,21.8,60.2,22.3,93.9h-219V1.3v0h-7.1v0v219.3H37.9h0v7.1h0h219.5
            v219.2c-82.3-1.2-153.7-47-191.3-114.2c36.1,74.2,112.3,125.4,200.4,125.4c123.1,0,222.8-99.8,222.8-222.8
            C489.3,195.8,479.1,158.8,461.1,126.7z M264.5,446.9V227.6h219C481.6,347.8,384.6,444.9,264.5,446.9z"/>
        <path display="inline" fill="#EAEAEA" d="M108.6,85.9c-0.8,0.9-1.6,1.8-2.4,2.7h0.1h2.4v-2.8v0L108.6,85.9L108.6,85.9z"/>
        <rect x="196" y="165.6" display="inline" fill="#EAEAEA" width="44.6" height="39"/>
        <rect x="130" y="165.6" display="inline" fill="#EAEAEA" width="44.6" height="39"/>
        <rect x="64.1" y="165.6" display="inline" fill="#EAEAEA" width="44.6" height="39"/>
        <rect x="196" y="109" display="inline" fill="#EAEAEA" width="44.6" height="39"/>
        <rect x="130" y="109" display="inline" fill="#EAEAEA" width="44.6" height="39"/>
        <rect x="196" y="49.6" display="inline" fill="#EAEAEA" width="44.6" height="39"/>
        <path display="inline" fill="#EAEAEA" d="M229.7,20.5c-1.3,0.2-2.5,0.5-3.8,0.7c-2.3,0.4-4.7,0.8-7,1.3c-1.4,0.3-2.8,0.6-4.2,1
            c-2.1,0.5-4.2,1-6.3,1.6c-1.5,0.4-2.9,0.8-4.4,1.2c-2,0.6-4,1.2-6,1.8c-0.7,0.2-1.3,0.4-2,0.6v0.1v4.1h44.6V19.1v0
            c-0.4,0-0.8,0.1-1.2,0.2C236.1,19.6,232.8,20,229.7,20.5z"/>
        <rect x="414.1" y="165.6" display="inline" fill="#EAEAEA" width="44.6" height="39"/>
        <rect x="348.2" y="165.6" display="inline" fill="#EAEAEA" width="44.6" height="39"/>
        <rect x="282.3" y="165.6" display="inline" fill="#EAEAEA" width="44.6" height="39"/>
        <rect x="348.2" y="109" display="inline" fill="#EAEAEA" width="44.6" height="39"/>
        <rect x="282.3" y="109" display="inline" fill="#EAEAEA" width="44.6" height="39"/>
        <path display="inline" fill="#EAEAEA" d="M392.8,64.7L392.8,64.7c-0.5-0.4-1-0.7-1.4-1.1c-2.5-2-5-3.9-7.5-5.8
            c-1-0.7-2.1-1.5-3.1-2.2c-2.3-1.6-4.6-3.2-7-4.7c-0.7-0.4-1.3-0.9-1.9-1.3h-0.1h-23.5v39h44.6V64.7z"/>
        <rect x="282.3" y="49.6" display="inline" fill="#EAEAEA" width="44.6" height="39"/>
        <path display="inline" fill="#EAEAEA" d="M326.9,28.5L326.9,28.5c-0.5-0.2-1.1-0.4-1.6-0.5c-2-0.7-4.1-1.3-6.2-1.9
            c-1.4-0.4-2.8-0.8-4.2-1.2c-2.2-0.6-4.5-1.1-6.8-1.6c-1.3-0.3-2.5-0.6-3.8-0.9c-2.9-0.6-5.8-1.1-8.7-1.6c-0.7-0.1-1.4-0.3-2.1-0.4
            c-3.6-0.6-7.3-1-10.9-1.4c-0.1,0-0.2,0-0.4,0v0v13.8h44.6V28.5z"/>
        <path display="inline" fill="#EAEAEA" d="M204,423.8c1.4,0.4,2.9,0.8,4.4,1.2c2.1,0.6,4.2,1.1,6.4,1.6c1.4,0.3,2.8,0.7,4.2,1
            c2.3,0.5,4.7,0.9,7.1,1.3c1.2,0.2,2.5,0.5,3.7,0.7c3.2,0.5,6.4,0.9,9.7,1.3c0.4,0,0.8,0.1,1.2,0.2v0v-14.7H196v5v0.1
            c0.7,0.2,1.3,0.4,2,0.6C199.9,422.6,201.9,423.2,204,423.8z"/>
        <rect x="196" y="359.6" display="inline" fill="#EAEAEA" width="44.6" height="39"/>
        <path display="inline" fill="#EAEAEA" d="M138.7,391.5c0.9,0.7,1.8,1.3,2.8,2c2.1,1.5,4.2,2.9,6.3,4.3c0.4,0.3,0.8,0.6,1.3,0.9h0.1
            h25.5v-39H130v25v0l0.1,0.1C132.9,387,135.8,389.3,138.7,391.5z"/>
        <rect x="196" y="300.2" display="inline" fill="#EAEAEA" width="44.6" height="39"/>
        <rect x="130" y="300.2" display="inline" fill="#EAEAEA" width="44.6" height="39"/>
        <path display="inline" fill="#EAEAEA" d="M108.7,300.2H69h-0.1c0.3,0.8,0.7,1.6,1,2.4c0.8,1.9,1.5,3.8,2.4,5.6
            c0.6,1.4,1.2,2.8,1.9,4.2c0.9,1.8,1.8,3.7,2.7,5.5c0.7,1.3,1.3,2.7,2,4c1,1.8,2,3.6,3,5.4c0.7,1.3,1.4,2.5,2.2,3.8
            c1.1,1.8,2.3,3.6,3.4,5.4c0.6,0.9,1.1,1.8,1.7,2.7h0h19.5V300.2z"/>
        <rect x="196" y="244.5" display="inline" fill="#EAEAEA" width="44.6" height="39"/>
        <rect x="130" y="244.5" display="inline" fill="#EAEAEA" width="44.6" height="39"/>
        <rect x="64.1" y="244.5" display="inline" fill="#EAEAEA" width="44.6" height="39"/>
        <path display="inline" fill="#EAEAEA" d="M296.8,429.1c1.5-0.3,3-0.5,4.5-0.8c2.2-0.4,4.3-0.9,6.5-1.4c1.4-0.3,2.8-0.6,4.2-1
            c2.2-0.6,4.5-1.2,6.7-1.8c1.3-0.4,2.6-0.7,3.8-1.1c2.6-0.8,5.1-1.6,7.6-2.5c0.8-0.3,1.6-0.5,2.4-0.8v0v-3.4h-44.6v14.1v0.1
            c0.8-0.1,1.6-0.3,2.5-0.4C292.5,429.8,294.6,429.4,296.8,429.1z"/>
        <rect x="287.9" y="359.6" display="inline" fill="#EAEAEA" width="44.6" height="39"/>
        <rect x="353.8" y="300.2" display="inline" fill="#EAEAEA" width="44.6" height="39"/>
        <rect x="287.9" y="300.2" display="inline" fill="#EAEAEA" width="44.6" height="39"/>
        <rect x="353.8" y="244.5" display="inline" fill="#EAEAEA" width="44.6" height="39"/>
        <rect x="287.9" y="244.5" display="inline" fill="#EAEAEA" width="44.6" height="39"/>
    </symbol>
    <symbol id="syrup">
        <path display="inline" opacity="0.5" fill="#CFCFCE" d="M86.7,73.9C73.8,58.7,82,36.2,96,21.8c17.9-18.5,50.9-29.7,73-15.1c14.6,9.6,19.7,27.1,32.8,38.2
            c13.9,11.8,34.5,14.6,53.8,15.2c19.2,0.5,39.1-0.7,57.2,5.3c14.3,4.7,26.9,14.1,32.7,26.6c5.7,12.5,3.7,28-6.7,37.8
            c-4.6,4.4-10.6,7.5-15.9,11.1c-22.6,15.5-34.5,42.4-29.7,67.3c4.1,21.6,19.1,40,30.2,59.5c11.1,19.5,18.3,43.5,6.5,62.7
            c-12.9,21-43.3,28-70.3,27.6c-27-0.4-54.2-6-80.6-1.2c-14.7,2.7-29,8.5-43.9,7.3c-19.5-1.6-35.6-15.3-43.2-31.3
            c-7.6-16-8-33.9-6.9-51.2c0.5-7.9,1.2-15.9-1.1-23.5c-2.3-7.7-7.6-14.4-13.6-20.3c-14-14-31.9-24.7-46.5-38.2
            s-26.3-31.8-23.1-50.3c3.3-19.4,22-34.1,42.2-42.2c9.5-3.8,19.7-6.6,28.3-11.7c8.7-5.2,15.9-13.5,15.5-22.7"/>
    </symbol>
    <symbol id="whisk">
        <path display="inline" fill="none" d="M201.7,39.7c-10.5-13.5-18.6-20.2-24.2-23.5c-1.6,0.6-3.1,1.3-4.7,2.1
            c-1.8,0.9-3.6,1.8-5.4,2.8c-0.6,3.9-0.8,9.3-0.1,16.6c1.9,19.2,10.4,51.5,35.2,104.2c25.5,54.2,68.4,130.1,138.9,235.6
            c-36.4-121.6-67.6-202.9-93.2-257.1C229.7,80.7,214.1,55.6,201.7,39.7z"/>
        <path display="inline" fill="none" d="M161.5,56.5c-2.8-12.7-3.7-22.3-3.5-29.7c-16.8,11.8-29,28.3-35.7,46.9
            c-8.5,23.6-8,50.4,3.6,74.9c0.3,0.6,0.6,1.3,1,2.1l0.1,0.2l0.1,0.2c0.2,0.4,0.4,0.9,0.7,1.5c1.4,3,4.7,8.7,11.6,18.3
            c7,9.6,17.7,23.1,34.1,41.8c29.2,33.3,76.3,83.1,152.2,157c-65.8-99.3-106.5-171.6-131.2-224.2C175.7,105.6,166,77,161.5,56.5z"/>
        <path display="inline" fill="none" d="M305,69.1c-0.3-0.6-0.6-1.1-0.8-1.5l-0.1-0.2l-0.1-0.2c-0.4-0.8-0.7-1.5-0.9-2.1
            c-11.5-24.5-31.9-42-55.5-50.5c-18.8-6.8-39.7-7.8-59.8-2.1c2.7,2.1,5.7,4.7,8.9,7.9c14.7,14.8,34.5,42.7,59.6,95.9
            c25.1,53.2,55.3,131.7,90.4,247.6C333,196,320,121.9,311.7,89.7C308.8,78.2,306.5,72.1,305,69.1z"/>
        <path display="inline" fill="#D2D3D4" d="M258.6,395.6l-7.9,3.7c-9.8-129.1-19.4-208.8-27.4-258.2c-4-24.8-7.6-41.9-10.6-53.7
            c-3-11.8-5.5-18.4-7.3-22.2c-0.3-0.7-0.6-1.3-0.9-1.8c-0.3-0.6-0.6-1.4-1-2.2C179.8,10.9,121.7-12.3,70.4,6.4
            c-4.6-2.1-8-2.5-10.1-2.4l-0.8,0.1c-0.5,0.1-0.9,0.1-1.1,0.2l-0.6,0.3c-0.2,0.1-0.5,0.4-0.9,0.7l-0.5,0.6c-1.4,1.5-3.3,4.4-4.6,9.4
            c-46.5,27.9-65.3,87-41.7,137.1c0.4,0.8,0.8,1.5,1.1,2.1c0.2,0.5,0.5,1.2,0.8,1.8c1.8,3.8,5.3,9.8,12.5,19.7
            c21.5,29.5,76.1,93.1,216.2,227.9l-7.9,3.7l68.6,145.6l25.7-12.1L258.6,395.6z M65.9,212.7c-16.4-18.7-27.1-32.2-34.1-41.8
            c-7-9.6-10.2-15.3-11.6-18.3c-0.3-0.6-0.5-1.1-0.7-1.5l-0.1-0.2l-0.1-0.2c-0.4-0.8-0.8-1.5-1-2.1c-11.5-24.5-12-51.3-3.6-74.9
            c6.7-18.5,18.9-35.1,35.7-46.9c-0.2,7.3,0.7,17,3.5,29.7c4.6,20.6,14.2,49.2,33,89.1c24.8,52.6,65.5,124.9,131.2,224.2
            C142.2,295.7,95,245.9,65.9,212.7z M94.9,141.8c-24.8-52.6-33.3-85-35.2-104.2c-0.7-7.3-0.5-12.7,0.1-16.6c1.8-1,3.5-1.9,5.4-2.8
            c1.6-0.7,3.1-1.4,4.7-2.1c5.6,3.3,13.7,10.1,24.2,23.5c12.4,15.9,28,41,46.6,80.5c25.6,54.2,56.7,135.6,93.2,257.1
            C163.2,271.8,120.4,196,94.9,141.8z M148.7,116.4c-25.1-53.2-44.9-81.1-59.6-95.9c-3.2-3.2-6.1-5.8-8.9-7.9
            c20.1-5.7,41-4.7,59.8,2.1c23.6,8.5,44,26,55.5,50.5c0.3,0.6,0.6,1.3,0.9,2.1l0.1,0.2l0.1,0.2c0.2,0.4,0.5,0.9,0.8,1.5
            c1.4,3,3.8,9.1,6.7,20.6c8.2,32.2,21.3,106.4,35,274.4C203.9,248.1,173.7,169.6,148.7,116.4z"/>
    </symbol>
    <symbol id="pitcher">
        <path display="inline" fill="#FFFFFF" d="M333.5,56c0-4.7-1.2-9.4-3.7-13.7l-3.9-6.7c-5.1-8.7-14.2-13.5-23.6-13.5
            c-4.7,0-9.4,1.2-13.7,3.7l-21.9,12.8c15.2,14.4,27.2,32.1,34.7,52L320,79.7C328.7,74.6,333.5,65.4,333.5,56z"/>
        <path display="inline" fill="#DEDEDD" d="M333.4,40.2l-3.9-6.7C323.6,23.5,313,18,302.2,18c-5.4,0-10.8,1.4-15.8,4.3l-22.9,13.4
            C238.6,13.5,205.9,0,169.9,0C92.1,0,29.1,63,29.1,140.8v0l0,0.1c-3,3.5-9.9,11.7-16.3,22.2C6.2,174.3,0,187.9,0,201.2
            c0,11.2,4.6,22.3,16.7,30.5c12,8.1,31.1,13.6,60.4,14.9c24.8,21.7,57.2,34.9,92.8,34.9c77.7,0,140.8-63,140.8-140.8
            c0-16.2-2.8-31.8-7.8-46.3l19.3-11.3c10-5.8,15.5-16.4,15.5-27.2C337.6,50.6,336.3,45.2,333.4,40.2z M169.9,277.5
            c-34.8,0-66.5-13-90.6-34.4l-0.5-0.5l-0.7,0c-29.3-1.2-47.9-6.7-59-14.2C8,220.8,4.1,211.4,4.1,201.2c0-12.1,5.7-25.2,12.3-36
            c6.5-10.8,13.7-19.3,16.4-22.2l0.5-0.6l0-1.6c0-37.7,15.3-71.9,40-96.6c24.7-24.7,58.9-40,96.6-40c37.7,0,71.9,15.3,96.6,40
            c24.7,24.7,40,58.9,40,96.6c0,37.7-15.3,71.9-40,96.6C241.8,262.2,207.6,277.5,169.9,277.5z M266.7,38.6l21.9-12.8
            c4.3-2.5,9-3.7,13.7-3.7c9.4,0,18.6,4.8,23.6,13.5l3.9,6.7c2.5,4.3,3.7,9,3.7,13.7c0,9.4-4.8,18.6-13.5,23.6l-18.6,10.9
            C293.8,70.7,281.8,53,266.7,38.6z"/>
        <path display="inline" fill="#FFFFFF" d="M266.5,44.1c-24.7-24.7-58.9-40-96.6-40c-37.7,0-71.9,15.3-96.6,40
            c-24.7,24.7-40,58.9-40,96.6l0,1.6l-0.5,0.6c-2.6,2.9-9.8,11.4-16.4,22.2c-6.5,10.8-12.3,24-12.3,36c0,10.2,3.8,19.5,14.9,27.1
            c11.1,7.5,29.7,13,59,14.2l0.7,0l0.5,0.5c24.1,21.4,55.8,34.4,90.6,34.4c37.7,0,71.9-15.3,96.6-40c24.7-24.7,40-58.9,40-96.6
            C306.6,103,291.3,68.9,266.5,44.1z M171.1,252c-28.3,0-54.1-10.6-73.7-28c-103.5-4.4-45.4-73.7-37.5-82.6l0-0.7
            c0-61.4,49.8-111.2,111.2-111.2c61.4,0,111.2,49.8,111.2,111.2C282.3,202.2,232.5,252,171.1,252z"/>
        <path display="inline" fill="#EFEEEE" d="M171.1,29.5c-61.4,0-111.2,49.8-111.2,111.2l0,0.7c-7.9,8.9-66,78.1,37.5,82.6
            c19.6,17.4,45.4,28,73.7,28c61.4,0,111.2-49.8,111.2-111.2C282.3,79.3,232.5,29.5,171.1,29.5z"/>
    </symbol>
    <symbol id="butter">
        <path id="butter" display="inline" fill="#EFEEEE" d="M263.6,1H49.2C22.1,1,0,23.1,0,50.2v86.1c0,27.1,22.1,49.2,49.2,49.2h214.4
            c27.1,0,49.2-22.1,49.2-49.2V50.2C312.8,23.1,290.7,1,263.6,1z"/>
    </symbol>
    <symbol id="vanilla">
        <path display="inline" fill="#FFFFFF" d="M166.4,32.9c-17.2-17.2-41-27.8-67.2-27.8c-26.3,0-50,10.6-67.2,27.8
            c-17.2,17.2-27.8,41-27.8,67.2c0,26.3,10.6,50,27.8,67.2c17.2,17.2,41,27.8,67.2,27.8c26.3,0,50-10.6,67.2-27.8
            c17.2-17.2,27.8-41,27.8-67.2C194.3,73.9,183.6,50.2,166.4,32.9z M99.2,180.2c-44.2,0-80-35.8-80-80c0-44.2,35.8-80,80-80
            s80,35.8,80,80C179.2,144.4,143.4,180.2,99.2,180.2z"/>
        <path display="inline" fill="#DEDEDD" d="M99.2,1C44.4,1,0,45.4,0,100.2c0,54.8,44.4,99.2,99.2,99.2c54.8,0,99.2-44.4,99.2-99.2
            C198.4,45.4,154,1,99.2,1z M99.2,195.3c-26.3,0-50-10.6-67.2-27.8c-17.2-17.2-27.8-41-27.8-67.2c0-26.3,10.6-50,27.8-67.2
            c17.2-17.2,41-27.8,67.2-27.8c26.3,0,50,10.6,67.2,27.8c17.2,17.2,27.8,41,27.8,67.2c0,26.3-10.6,50-27.8,67.2
            C149.2,184.6,125.4,195.3,99.2,195.3z"/>
        <circle display="inline" fill="#E0E0DF" cx="99.2" cy="100.2" r="80"/>
    </symbol>
    <symbol id="water">
        <path display="inline" fill="#FFFFFF" d="M237.4,45.1c-24.7-24.7-58.9-40-96.6-40c-37.7,0-71.9,15.3-96.6,40
            c-24.7,24.7-40,58.9-40,96.6c0,37.7,15.3,71.9,40,96.6c24.7,24.7,58.9,40,96.6,40c37.7,0,71.9-15.3,96.6-40
            c24.7-24.7,40-58.9,40-96.6C277.5,104,262.2,69.9,237.4,45.1z M140.8,256.1c-63.1,0-114.3-51.2-114.3-114.3S77.6,27.5,140.8,27.5
            s114.3,51.2,114.3,114.3S203.9,256.1,140.8,256.1z"/>
        <path display="inline" fill="#DEDEDD" d="M140.8,1C63,1,0,64,0,141.8c0,77.7,63,140.8,140.8,140.8c77.7,0,140.8-63,140.8-140.8
            C281.6,64,218.5,1,140.8,1z M140.8,278.5c-37.7,0-71.9-15.3-96.6-40c-24.7-24.7-40-58.9-40-96.6c0-37.7,15.3-71.9,40-96.6
            c24.7-24.7,58.9-40,96.6-40c37.7,0,71.9,15.3,96.6,40c24.7,24.7,40,58.9,40,96.6c0,37.7-15.3,71.9-40,96.6
            C212.7,263.2,178.5,278.5,140.8,278.5z"/>
        <circle display="inline" fill="#EFEEEE" cx="140.8" cy="141.8" r="114.3"/>
    </symbol>
    <symbol id="egg">
        <path display="inline" fill="#FFFFFF" d="M63.6,5.1c-16.2,0-31,8.6-41.9,22.9C10.9,42.2,4.1,62,4.1,83.9c0,21.9,6.8,41.7,17.6,55.9
            c10.8,14.2,25.6,22.9,41.9,22.9c16.2,0,31-8.6,41.9-22.9c10.8-14.2,17.6-34,17.6-55.9c0-21.9-6.8-41.7-17.6-55.9
            C94.6,13.7,79.8,5.1,63.6,5.1z"/>
        <path display="inline" fill="#DEDEDD" d="M108.7,25.5C97.3,10.5,81.3,1,63.6,1c-17.7,0-33.7,9.5-45.1,24.5C7,40.5,0,61.1,0,83.9
            c0,22.7,7,43.4,18.4,58.4c11.4,15,27.4,24.5,45.1,24.5c17.7,0,33.7-9.5,45.1-24.5c11.4-15,18.4-35.6,18.4-58.4
            C127.1,61.1,120.1,40.5,108.7,25.5z M105.4,139.8c-10.8,14.2-25.6,22.9-41.9,22.9c-16.2,0-31-8.6-41.9-22.9
            c-10.8-14.2-17.6-34-17.6-55.9C4.1,62,10.9,42.2,21.7,28C32.5,13.7,47.3,5.1,63.6,5.1c16.2,0,31,8.6,41.9,22.9
            C116.2,42.2,123,62,123,83.9C123,105.8,116.2,125.5,105.4,139.8z"/>
    </symbol>
    <symbol id="strawberry">
        <path display="inline" fill="#A09F9F" d="M28,29.5c0.3-0.4,0.7-0.8,1-1.1c3.2-3.5,7-6.2,11.1-8.3c7.6-14.6-8-19.1-8-19.1
            c-4.2,6.1-4.4,14.6-3.7,21.2C21.7,8.2,3.7,10.6,3.7,10.6C4.2,26.1,14.3,30.9,22,32.3c-6.9,0.4-16.4,2.2-22,8.1c0,0,6.4,12.3,17.5,6
            C19.7,40.1,23.7,34.4,28,29.5z"/>
        <path display="inline" fill="#CFCFCE" d="M90.3,66.3C89,15.6,56.1,15.8,56.1,15.8c-5.5,0.5-11,1.9-16,4.3c-4.2,2-8,4.8-11.1,8.3
            c-0.3,0.4-0.7,0.7-1,1.1c-4.3,4.9-8.3,10.6-10.5,16.9c-1,3-1.7,6.1-1.7,9.3c0,3.4,0.4,9.5,3,12.3c16.6,17.6,36.9,25.4,54.7,20.7
            S90.3,66.3,90.3,66.3z"/>
    </symbol>
    <symbol id="berries">
        <circle display="inline" fill="#EAEAEA" cx="22.6" cy="46.7" r="21.1"/>
        <circle display="inline" fill="#CFCFCE" cx="50.6" cy="22.1" r="21.1"/>
        <circle display="inline" fill="#A09F9F" cx="58.2" cy="58.4" r="24.7"/>
    </symbol>
    <symbol id="raspberry">
        <path display="inline" fill="#A09F9F" d="M100.8,58.4c0-5.8-3.8-10.7-8.9-12.5c0.7-1.6,1.1-3.4,1.1-5.3c0-7-5.4-12.7-12.3-13.2
            c-1.9-5.3-6.9-9.1-12.8-9.3c-3.4,3.6-7.8,6.7-13.2,7.7c-0.9,1.6-1.4,3.5-1.5,5.4c-2-1.1-4.2-1.8-6.6-1.8c-6.7,0-12.2,5-13.1,11.5
            c-0.7-0.1-1.5-0.2-2.2-0.2c-7.3,0-13.3,6-13.3,13.3s6,13.3,13.3,13.3c0.1,0,0.2,0,0.3,0c1.2,6.1,6.6,10.7,13,10.7
            c0.7,0,1.4-0.1,2.1-0.2l0,0.2c0,7.3,6,13.3,13.3,13.3c4.7,0,8.8-2.5,11.2-6.1c2.3,2,5.4,3.3,8.7,3.3C87,88.3,93,82.3,93,75
            c0-1.5-0.3-2.9-0.7-4.2C97.2,68.9,100.8,64.1,100.8,58.4z M59.6,44.5l0-0.3l0.2,0.1L59.6,44.5z M53.2,54.5
            c-0.1-0.1-0.3-0.2-0.4-0.3c0.1-0.1,0.3-0.2,0.4-0.2C53.2,54.2,53.2,54.4,53.2,54.5z"/>
        <path display="inline" fill="#7D7D7D" d="M0.3,32.7c0,0,17.2,17.8,39.7-5.5C40.1,27.3,21,16.1,0.3,32.7z"/>
        <path display="inline" fill="#7D7D7D" d="M67.9,18.1c6.5-6.9,9.4-15.7,9.4-15.7C44.8,7.1,40.7,20.2,40.1,23.1L33.2,9l-6.6,5
            c3.8,7.5,13.5,13.3,13.5,13.3l1.6-1.2l-1.1-2.3c5.3,2.3,10.1,2.7,14.2,1.9C60.1,24.7,64.5,21.7,67.9,18.1z"/>
    </symbol>
    <symbol id="banana">
        <path display="inline" fill="#F0EFEF" d="M46,25.3c-5.7,0-10.8,2.3-14.5,6c-3.7,3.7-6,8.8-6,14.5c0,5.7,2.3,10.8,6,14.5
            c3.7,3.7,8.8,6,14.5,6c5.7,0,10.8-2.3,14.5-6c3.7-3.7,6-8.8,6-14.5c0-5.7-2.3-10.8-6-14.5C56.8,27.6,51.7,25.3,46,25.3z"/>
        <path display="inline" fill="#F0EFEF" d="M73.4,18.3C66.4,11.3,56.8,7,46,7c-10.7,0-20.4,4.3-27.4,11.4c-7,7-11.3,16.7-11.4,27.4
            c0,10.7,4.3,20.4,11.4,27.4c7,7,16.7,11.3,27.4,11.4c10.7,0,20.4-4.3,27.4-11.4c7-7,11.3-16.7,11.4-27.4
            C84.8,35,80.5,25.3,73.4,18.3z M46,69.6c-13.2,0-23.9-10.7-23.9-23.9c0-13.2,10.7-23.9,23.9-23.9C59.3,21.8,70,32.5,70,45.7
            C70,58.9,59.3,69.6,46,69.6z"/>
        <path display="inline" fill="#CFCFCE" d="M46,0C20.8,0,0.3,20.5,0.3,45.7C0.3,71,20.8,91.4,46,91.4c25.2,0,45.7-20.5,45.7-45.7
            C91.8,20.5,71.3,0,46,0z M73.4,73.1c-7,7-16.7,11.3-27.4,11.4c-10.7,0-20.4-4.3-27.4-11.4c-7-7-11.3-16.7-11.4-27.4
            c0-10.7,4.3-20.4,11.4-27.4C25.7,11.3,35.3,7,46,7c10.7,0,20.4,4.3,27.4,11.4c7,7,11.3,16.7,11.4,27.4
            C84.8,56.4,80.5,66.1,73.4,73.1z"/>
        <path display="inline" fill="#CFCFCE" d="M46,21.8c-13.2,0-23.9,10.7-23.9,23.9c0,13.2,10.7,23.9,23.9,23.9
            C59.3,69.6,70,58.9,70,45.7C70,32.5,59.3,21.8,46,21.8z M60.5,60.2c-3.7,3.7-8.8,6-14.5,6c-5.7,0-10.8-2.3-14.5-6
            c-3.7-3.7-6-8.8-6-14.5c0-5.7,2.3-10.8,6-14.5c3.7-3.7,8.8-6,14.5-6c5.7,0,10.8,2.3,14.5,6c3.7,3.7,6,8.8,6,14.5
            C66.5,51.4,64.2,56.5,60.5,60.2z"/>
    </symbol>
    <symbol id="chocolate">
        <path display="inline" fill="#A09F9F" d="M47.1,23.9c-2.2-2.9-5.7-3.9-8.6-6c-4.5-3.3-6.9-8-7.9-13.3c-0.9-4.6-6.8-3.4-8.2,0
            C18.8,13.2,8.7,16.8,4.7,25.1c-1,2.1-1.4,4.3-1.3,6.3c0,0.3,0,0.6,0.1,0.9c0.6,3.4,2.9,6.2,6.8,7.5c0.2,0.1,0.4,0.1,0.6,0.1
            c9.8,5.6,23.7,3.1,33.3-2.7C49.1,34.2,50.6,28.6,47.1,23.9z"/>
        <path display="inline" fill="#A09F9F" d="M95.5,37.3c-2.2-2.9-5.7-3.9-8.6-6c-4.5-3.3-6.9-8-7.9-13.3c-0.9-4.6-6.8-3.4-8.2,0
            c-3.6,8.6-13.7,12.1-17.7,20.5c-1,2.1-1.4,4.3-1.3,6.3c0,0.3,0,0.6,0.1,0.9c0.6,3.4,2.9,6.2,6.8,7.5c0.2,0.1,0.4,0.1,0.6,0.1
            c9.8,5.6,23.7,3.1,33.3-2.7C97.5,47.5,99,42,95.5,37.3z"/>
        <path display="inline" fill="#A09F9F" d="M54.4,68.4c-2.2-2.9-5.7-3.9-8.6-6c-4.5-3.3-6.9-8-7.9-13.3c-0.9-4.6-6.8-3.4-8.2,0
            C26.1,57.7,16.1,61.2,12,69.5c-1,2.1-1.4,4.3-1.3,6.3c0,0.3,0,0.6,0.1,0.9c0.6,3.4,2.9,6.2,6.8,7.5c0.2,0.1,0.4,0.1,0.6,0.1
            c9.8,5.6,23.7,3.1,33.3-2.7C56.4,78.6,58,73.1,54.4,68.4z"/>
    </symbol>
    <symbol id="nuts">
        <path display="inline" fill="#EAEAEA" d="M0.3,46c0,0,23.4-31.4,48,0C48.4,46,27.5,69.3,0.3,46z"/>
        <path display="inline" fill="#EAEAEA" d="M37.4,14c0,0,23.4-31.4,48,0C85.4,14,64.5,37.2,37.4,14z"/>
        <path display="inline" fill="#EAEAEA" d="M67.9,46c0,0,23.4-31.4,48,0C115.9,46,95,69.3,67.9,46z"/>
        <path display="inline" fill="#EAEAEA" d="M101.8,14c0,0,23.4-31.4,48,0C149.9,14,129,37.2,101.8,14z"/>
    </symbol>
    <symbol id="cream">
        <path id="cream" display="inline" fill="#EAEAEA" d="M112.7,42.3c-3.4-4.4-8.6-6.4-11.4-11c-2.4-4-3.2-7.1-6.9-10.5
            c-5.1-4.6-11.1-7-15.2-12.7c-2.5-3.5-3.9-7.3-8.9-8c-4.6-0.6-8.6,2.8-12.1,5.1C51,9.9,43.8,14.5,36.6,19.3c-4.1,2.8-8.2,5-9.6,10.1
            c-1,3.6,1.5,7.5,2.6,10.8C16.6,41.5,4.7,50,1.5,63.4c-13.5,55.2,69.4,58.8,100.4,41c10.1-5.8,20.8-13.7,21.3-26.3
            C123.6,66.7,119.8,51.5,112.7,42.3z"/>
    </symbol>
    <symbol id="tomato">
        <path display="inline" fill="#A09F9F" d="M31.1,8.2v53.6h24.8V0.3C46.9,1.2,38.5,4,31.1,8.2z"/>
        <path display="inline" fill="#A09F9F" d="M0,61.8h21V15.5C8.1,26.9,0,43.4,0,61.8z"/>
        <path display="inline" fill="#A09F9F" d="M66,0.2v61.6h24.8V7.2C83.3,3.2,74.9,0.8,66,0.2z"/>
        <path display="inline" fill="#A09F9F" d="M123.7,61.8c0-19.3-8.9-36.6-22.7-47.9v47.9H123.7z"/>
        <path display="inline" fill="#7D7D7D" d="M21,15.5v46.3h10.1V8.2C27.5,10.3,24.1,12.8,21,15.5z"/>
        <path display="inline" fill="#7D7D7D" d="M61.8,0c-2,0-4,0.1-6,0.3v61.5H66V0.2C64.6,0.1,63.3,0,61.8,0z"/>
        <path display="inline" fill="#7D7D7D" d="M101,14c-3.1-2.6-6.5-4.8-10.1-6.7v54.6H101V14z"/>
    </symbol>
    <symbol id="chicken">
        <path display="inline" fill="#F0EFEF" d="M55.6,43c0.4-1.9,1.1-3.5,1.8-5H28.5c0.2-1,0.4-2.1,0.4-3.2c0-8-6.5-14.5-14.5-14.5
            S0,26.8,0,34.8c0,5.1,2.7,9.6,6.7,12.2C2.7,49.5,0,54,0,59.1c0,8,6.5,14.5,14.5,14.5c7.9,0,14.3-6.4,14.5-14.2H60
            C56.1,55.3,53.9,50.1,55.6,43z"/>
        <path display="inline" fill="#CFCFCE" d="M170.9,5.2C137.3-8.6,97.5,7.1,69.5,27.6c-5.1,2.1-9.4,5.1-12.1,10.4
            c-0.7,1.5-1.4,3.1-1.8,5c-1.7,7.1,0.5,12.3,4.4,16.4c5,5.2,12.8,8.5,19.3,11.5c30.8,14.3,79.6,33.9,110.3,8.5
            C215,58.4,197.4,16.1,170.9,5.2z"/>
    </symbol>
    <symbol id="sunny-side">
        <path display="inline" fill="#F0EFEF" d="M108.1,47.9c-2.3-13-9.7-24.1-20.4-31.8C77.2,8.6,62.9,0.8,49.8,0
            c-1.7-0.1-2.9,0.6-3.5,1.7C26.7,13.2-4.9,33.3,0.6,59.5c6.2,29.2,41.5,35.3,66.4,36c12.7,0.4,24.8-2.8,32.9-13.1
            C107.6,72.7,110.2,60,108.1,47.9z M45.4,61c-12.3,0-22.3-10-22.3-22.3s10-22.3,22.3-22.3s22.3,10,22.3,22.3S57.7,61,45.4,61z"/>
        <circle display="inline" fill="#CFCFCE" cx="45.4" cy="38.8" r="22.3"/>
    </symbol>
    <symbol id="bacon">
        <path fill="#CFCFCE" d="M93.6,19c4.8-3.4,9.8-7.9,15.7-9.3c10.8-2.7,16.6,3.9,23.7,10.7c18.2,17.3,43.7,17.4,58.6-2.1
            c0-6.1,0.1-12.2,0-18.3c-7,9.2-14.4,18.7-23.2,22.1c-23.2,9-46.2-26.8-69.5-18.5c-6.5,2.3-12.3,7.9-18.7,11
            C54.8,27,27.3-2.6,1.4,7.5C1.3,9.4,1.2,11.4,1,13.3C20.9,19.6,43.4,27.6,64.3,28C75.4,28.2,84.6,25.3,93.6,19z"/>
        <path fill="#CFCFCE" d="M154.8,57c-7.9-1.5-15-4.7-21.5-9.4c-11-8.1-17.6-15-32.8-6.9c-14.9,8-28.5,14-45.9,13.4
            C35.2,53.4,18.9,41.2,0,40.1c0,3.7,0.1,7.4,0.2,11c23.5,19.3,51.7,23.4,77,11.1C85.8,58,94.2,52,103.1,50.3
            c14.3-2.7,28.3,6.1,42,13.2c13.7,7.1,28.9,12.4,42.2,3.3c0.7-0.5,1.5-1.1,2-2c0.9-1.5,1-3.7,1.1-5.8c0.1-2.6,0.2-5.3,0.4-7.9
            C179.7,57.1,167.4,59.4,154.8,57z"/>
        <path fill="#CFCFCE" d="M127.2,19.8c-17.9-14.8-25.2,0.4-39.2,7.6c-7.4,3.8-15.4,4.9-23.6,4.5C42.9,31,21,23.8,0.7,17.3
            C0.3,23.6,0.1,29.9,0,36.2c16.1,1,29.7,10.3,45.6,13c12.2,2.1,24.9,0.8,36.5-3.4c8.5-3.1,14.7-9.2,22.7-12.8
            c9.4-4.2,16.6,0.3,24.2,6c19.3,14.5,40.5,20.2,61.9,7.4c0.3-7.3,0.5-14.6,0.6-21.9c-7,7.5-16.3,12.5-27.2,13.1
            C147.3,38.8,139,29.6,127.2,19.8z"/>
        <path fill="#FFFFFF" d="M133,20.3c-7.2-6.8-12.9-13.4-23.7-10.7c-5.9,1.5-10.8,6-15.7,9.3c-9,6.3-18.1,9.2-29.3,9
            C43.4,27.6,20.9,19.6,1,13.3c-0.1,1.3-0.2,2.7-0.3,4C21,23.8,42.9,31,64.3,31.9c8.3,0.3,16.2-0.8,23.6-4.5
            c14-7.1,21.3-22.3,39.2-7.6c11.9,9.8,20.1,18.9,37.1,17.9c10.9-0.7,20.2-5.6,27.2-13.1c0-2.1,0.1-4.2,0.1-6.3
            C176.7,37.7,151.2,37.6,133,20.3z"/>
        <path fill="#FFFFFF" d="M129,39c-7.6-5.7-14.8-10.2-24.2-6c-8,3.5-14.2,9.7-22.7,12.8c-11.6,4.2-24.3,5.4-36.5,3.4
            c-15.9-2.7-29.5-12-45.6-13c0,1.3,0,2.6,0,3.9C18.9,41.2,35.2,53.4,54.5,54c17.4,0.6,31-5.4,45.9-13.4c15.2-8.1,21.8-1.1,32.8,6.9
            c6.5,4.7,13.6,8,21.5,9.4c12.6,2.4,25,0.1,36-5.9c0.1-1.6,0.1-3.1,0.2-4.7C169.5,59.2,148.3,53.5,129,39z"/>
    </symbol>
</svg>
