<svg xmlns="http://www.w3.org/2000/svg" xmlns:xlink="http://www.w3.org/1999/xlink" viewBox="0 0 32 32">
    <symbol id="arrow_back">
        <path display="inline" d="M14.1,6.3v3.9v1.2l1.2,0c8.6,0.1,13.4,3.9,14.7,11.6c-4.7-5.5-10.2-5.5-14.7-5.5h-1.2v1.2v3.8L2.5,14.5
            L14.1,6.3 M15.4,3.9l-15,10.6l15,10.6v-6.2c6,0,11.6,0.3,16.3,8.7c0-5.3-0.9-17.2-16.3-17.4V3.9L15.4,3.9z"/>
    </symbol>
    <symbol id="arrow_up">
        <path display="inline" d="M17,28c0.6,0,1-0.4,1-1V7.4l4.3,4.3c0.4,0.4,1,0.4,1.4,0s0.4-1,0-1.4l-6-6c-0.1-0.1-0.2-0.2-0.3-0.2
            c-0.2-0.1-0.5-0.1-0.8,0c-0.1,0-0.2,0.1-0.3,0.2c0,0,0,0,0,0l-6,6c-0.4,0.4-0.4,1,0,1.4c0.4,0.4,1,0.4,1.4,0L16,7.4V27
            C16,27.6,16.4,28,17,28z"/>
    </symbol>
    <symbol id="arrow_triangle-up">
        <path display="inline" d="M10,21h14c0.3,0,0.5-0.1,0.7-0.4l0,0c0.4-0.4,0.4-1.1,0-1.6l-7-7.8c-0.4-0.4-1-0.4-1.4,0c0,0,0,0,0,0
            l-7,7.7c-0.4,0.4-0.4,1.1,0,1.6c0,0,0,0,0,0C9.5,20.9,9.7,21,10,21z"/>
    </symbol>
    <symbol id="arrow_triangle-down">
        <path display="inline" d="M17.7,20.7C17.7,20.7,17.7,20.6,17.7,20.7l7-7.8c0.4-0.4,0.4-1.1,0-1.6c0,0,0,0,0,0
            C24.5,11.1,24.2,11,24,11H10c-0.3,0-0.5,0.1-0.7,0.4l0,0c-0.4,0.4-0.4,1.1,0,1.6l7,7.8C16.7,21.1,17.3,21.1,17.7,20.7z"/>
    </symbol>
    <symbol id="arrow_triangle-left">
        <path display="inline" d="M20.1,8.3l-7.8,7c-0.4,0.4-0.4,1,0,1.4c0,0,0,0,0,0l7.7,7c0.4,0.4,1.1,0.4,1.6,0c0,0,0,0,0,0
            c0.2-0.2,0.3-0.4,0.3-0.7V9c0-0.3-0.1-0.5-0.4-0.7l0,0C21.2,7.9,20.5,7.9,20.1,8.3z"/>
    </symbol>
    <symbol id="arrow_triangle-right">
        <path display="inline" d="M13.9,23.7l7.7-7c0.4-0.4,0.4-1,0-1.4c0,0,0,0,0,0l-7.6-7c-0.4-0.4-1.1-0.4-1.6,0c0,0,0,0,0,0
            C12.1,8.5,12,8.7,12,9v14c0,0.3,0.1,0.5,0.3,0.7l0,0C12.8,24.1,13.5,24.1,13.9,23.7z"/>
    </symbol>
    <symbol id="arrow_carrot-up">
        <path display="inline" d="M11.2,20.2l5.8-5.8l5.8,5.8c0.4,0.4,1,0.4,1.4,0s0.4-1,0-1.4l-6.5-6.5C17.5,12.1,17.3,12,17,12
            s-0.5,0.1-0.7,0.3l-6.5,6.5c-0.4,0.4-0.4,1,0,1.4C10.2,20.6,10.8,20.6,11.2,20.2z"/>
    </symbol>
    <symbol id="arrow_carrot-right">
        <path display="inline" d="M12.8,23.2c0.4,0.4,1,0.4,1.4,0l6.5-6.5c0.2-0.2,0.3-0.5,0.3-0.7c0-0.3-0.1-0.5-0.3-0.7l-6.5-6.5
            c-0.4-0.4-1-0.4-1.4,0s-0.4,1,0,1.4l5.8,5.8l-5.8,5.8C12.4,22.2,12.4,22.8,12.8,23.2z"/>
    </symbol>
    <symbol id="arrow_carrot-left">
        <path display="inline" d="M12.3,16.7l6.5,6.5c0.4,0.4,1,0.4,1.4,0s0.4-1,0-1.4L14.4,16l5.8-5.8c0.4-0.4,0.4-1,0-1.4
            c-0.4-0.4-1-0.4-1.4,0l-6.5,6.5C12.1,15.5,12,15.7,12,16S12.1,16.5,12.3,16.7z"/>
    </symbol>
    <symbol id="arrow_carrot-down">
        <path display="inline" d="M22.8,11.8L17,17.6l-5.8-5.8c-0.4-0.4-1-0.4-1.4,0c-0.4,0.4-0.4,1,0,1.4l6.5,6.5c0.2,0.2,0.5,0.3,0.7,0.3
            c0.3,0,0.5-0.1,0.7-0.3l6.5-6.5c0.4-0.4,0.4-1,0-1.4C23.8,11.4,23.2,11.4,22.8,11.8z"/>
    </symbol>
    <symbol id="arrow_carrot-2up">
        <path display="inline" d="M23.5,14.2l-6.7-5.9C16.6,8.1,16.3,8,16,8c-0.3,0-0.5,0.1-0.7,0.3l-6.7,5.9c-0.4,0.4-0.4,1,0,1.4
            c0.4,0.4,1,0.4,1.4,0l6-5.3l6,5.3c0.4,0.4,1,0.4,1.4,0C23.8,15.2,23.8,14.6,23.5,14.2z M16.8,15.5c-0.2-0.2-0.5-0.3-0.7-0.3
            c-0.3,0-0.5,0.1-0.7,0.3l-6.7,5.9c-0.4,0.4-0.4,1,0,1.4s1,0.4,1.4,0l6-5.3l6,5.3c0.4,0.4,1,0.4,1.4,0s0.4-1,0-1.4L16.8,15.5z"/>
    </symbol>
    <symbol id="arrow_carrot-2right">
        <path display="inline" d="M23.7,15.3l-5.9-6.7c-0.4-0.4-1-0.4-1.4,0s-0.4,1,0,1.4l5.3,6l-5.3,6c-0.4,0.4-0.4,1,0,1.4s1,0.4,1.4,0
            l5.9-6.7c0.2-0.2,0.3-0.5,0.3-0.7C24,15.8,23.9,15.5,23.7,15.3z M9.2,23.5c0.4,0.4,1,0.4,1.4,0l5.9-6.7c0.2-0.2,0.3-0.5,0.3-0.7
            c0-0.3-0.1-0.5-0.3-0.7l-5.9-6.7c-0.4-0.4-1-0.4-1.4,0s-0.4,1,0,1.4l5.3,6l-5.3,6C8.8,22.4,8.8,23.1,9.2,23.5z"/>
    </symbol>
    <symbol id="arrow_carrot-2left">
        <path display="inline" d="M9.3,16.7l5.9,6.7c0.4,0.4,1,0.4,1.4,0c0.4-0.4,0.4-1,0-1.4l-5.3-6l5.3-6c0.4-0.4,0.4-1,0-1.4
            c-0.4-0.4-1-0.4-1.4,0l-5.9,6.7C9.1,15.4,9,15.7,9,16C9,16.2,9.1,16.5,9.3,16.7z M23.8,8.5c-0.4-0.4-1-0.4-1.4,0l-5.9,6.7
            c-0.2,0.2-0.3,0.5-0.3,0.7c0,0.3,0.1,0.5,0.3,0.7l5.9,6.7c0.4,0.4,1,0.4,1.4,0s0.4-1,0-1.4l-5.3-6l5.3-6
            C24.2,9.6,24.2,8.9,23.8,8.5z"/>
    </symbol>
    <symbol id="arrow_carrot-2down">
        <path display="inline" d="M23,16.4l-6,5.3l-6-5.3c-0.4-0.4-1-0.4-1.4,0s-0.4,1,0,1.4l6.7,5.9c0.2,0.2,0.5,0.3,0.7,0.3
            c0.3,0,0.5-0.1,0.7-0.3l6.7-5.9c0.4-0.4,0.4-1,0-1.4S23.3,16,23,16.4z M24.4,9.2c-0.4-0.4-1-0.4-1.4,0l-6,5.3l-6-5.3
            c-0.4-0.4-1-0.4-1.4,0c-0.4,0.4-0.4,1,0,1.4l6.7,5.9c0.2,0.2,0.5,0.3,0.7,0.3c0.3,0,0.5-0.1,0.7-0.3l6.7-5.9
            C24.8,10.2,24.8,9.6,24.4,9.2z"/>
    </symbol>
    <symbol id="icon_check">
        <path display="inline" d="M16.1,0c-8.8,0-16,7.2-16,16s7.2,16,16,16s16-7.2,16-16S24.9,0,16.1,0z M16.1,30c-7.7,0-14-6.3-14-14
            s6.3-14,14-14s14,6.3,14,14S23.8,30,16.1,30z M23.1,9.6c-0.6-0.4-1.5-0.2-1.9,0.4l-6.8,10.3l-3.2-3c-0.6-0.5-1.5-0.5-2,0.1
            s-0.5,1.5,0.1,2l4.5,4.1c0,0,0,0,0.1,0c0,0,0.1,0.1,0.1,0.1c0.1,0,0.1,0,0.2,0.1c0.1,0,0.1,0.1,0.2,0.1c0.1,0,0.2,0,0.2,0
            c0.1,0,0.2,0,0.3,0c0,0,0.1,0,0.1,0c0.1,0,0.3-0.1,0.4-0.2c0,0,0,0,0.1,0c0.1-0.1,0.2-0.1,0.2-0.2c0.1-0.1,0.1-0.1,0.1-0.2
            c0,0,0,0,0,0l7.7-11.7C23.9,10.9,23.7,10.1,23.1,9.6z"/>
    </symbol>
    <symbol id="icon_close">
        <path display="inline" d="M16,1C7.7,1,1,7.7,1,16s6.7,15,15,15s15-6.7,15-15S24.3,1,16,1z M16,29C8.8,29,3,23.2,3,16S8.8,3,16,3
            s13,5.8,13,13S23.2,29,16,29z M21.5,9.1L16,14.5l-4.9-5.5c-0.4-0.4-1-0.4-1.4,0c-0.4,0.4-0.4,1,0,1.4l4.9,5.5l-5.6,5.6
            c-0.4,0.4-0.4,1,0,1.4s1,0.4,1.4,0l5.5-5.5l4.9,5.5c0.4,0.4,1,0.4,1.4,0s0.4-1,0-1.4L17.4,16l5.6-5.6c0.4-0.4,0.4-1,0-1.4
            C22.6,8.7,21.9,8.7,21.5,9.1z"/>
    </symbol>
    <symbol id="icon_minus">
        <path display="inline" d="M16,1C7.7,1,1,7.7,1,16s6.7,15,15,15s15-6.7,15-15S24.3,1,16,1z M16,29C8.8,29,3,23.2,3,16S8.8,3,16,3
            s13,5.8,13,13S23.2,29,16,29z M24,15H8c-0.6,0-1,0.4-1,1s0.4,1,1,1h16c0.6,0,1-0.4,1-1S24.6,15,24,15z"/>
    </symbol>
    <symbol id="icon_plus">
        <path display="inline" d="M16,1C7.7,1,1,7.7,1,16s6.7,15,15,15s15-6.7,15-15S24.3,1,16,1z M16,29C8.8,29,3,23.2,3,16S8.8,3,16,3
            s13,5.8,13,13S23.2,29,16,29z M24,15h-7V8c0-0.6-0.4-1-1-1s-1,0.4-1,1v7H8c-0.6,0-1,0.4-1,1s0.4,1,1,1h7v7c0,0.6,0.4,1,1,1
            s1-0.4,1-1v-7h7c0.6,0,1-0.4,1-1S24.6,15,24,15z"/>
    </symbol>
    <symbol id="icon_info">
        <path display="inline" d="M17,0C8.2,0,1,7.2,1,16s7.2,16,16,16s16-7.2,16-16S25.8,0,17,0z M17,30C9.3,30,3,23.7,3,16S9.3,2,17,2
            s14,6.3,14,14S24.7,30,17,30z M17,12c-1.1,0-2,0.9-2,2v10c0,1.1,0.9,2,2,2s2-0.9,2-2V14C19,12.9,18.1,12,17,12z M15,8
            c0,1.1,0.9,2,2,2s2-0.9,2-2s-0.9-2-2-2S15,6.9,15,8z"/>
    </symbol>
    <symbol id="icon_clock">
        <path display="inline" d="M16.1,1.1c-3.8,0-7.6,1.5-10.6,4.4c-5.8,5.8-5.8,15.3,0,21.1c2.9,2.9,6.7,4.4,10.6,4.4s7.6-1.5,10.6-4.4
            c5.8-5.8,5.8-15.3,0-21.1C23.7,2.6,19.9,1.1,16.1,1.1z M25.2,25.2c-2.4,2.4-5.7,3.8-9.1,3.8c-3.5,0-6.7-1.3-9.1-3.8
            c-2.4-2.4-3.8-5.7-3.8-9.1s1.3-6.7,3.8-9.1c2.4-2.4,5.7-3.8,9.1-3.8c3.5,0,6.7,1.3,9.1,3.8s3.8,5.7,3.8,9.1S27.7,22.8,25.2,25.2z
             M22,15h-5V8c0-0.6-0.4-1-1-1s-1,0.4-1,1v8v0v0c0,0.6,0.4,1,1,1h6c0.6,0,1-0.4,1-1S22.6,15,22,15z"/>
    </symbol>
    <symbol id="icon_menu">
        <path display="inline" d="M16,1C7.7,1,1,7.7,1,16s6.7,15,15,15s15-6.7,15-15S24.3,1,16,1z M16,29C8.8,29,3,23.2,3,16S8.8,3,16,3
            s13,5.8,13,13S23.2,29,16,29z M24,15H8c-0.6,0-1,0.4-1,1s0.4,1,1,1h16c0.6,0,1-0.4,1-1S24.6,15,24,15z M24,9H8c-0.6,0-1,0.4-1,1
            s0.4,1,1,1h16c0.6,0,1-0.4,1-1S24.6,9,24,9z M24,21H8c-0.6,0-1,0.4-1,1s0.4,1,1,1h16c0.6,0,1-0.4,1-1S24.6,21,24,21z"/>
    </symbol>
    <symbol id="icon_vol-mute">
        <path display="inline" d="M0.4,10.4v11.2h9.2l7.6,7.6V2.8l-7.6,7.6H0.4z M11.1,12l3.8-3.8v15.6L11.1,20l-0.7-0.7H9.6H2.6v-6.7h6.9
            h0.9L11.1,12z"/>
        <path display="inline" d="M31.5,11.1c0-0.2-0.1-0.5-0.3-0.6c-0.2-0.2-0.4-0.3-0.6-0.3c-0.2,0-0.5,0.1-0.6,0.3l-4.2,4.2l-3.8-4.2
            l0,0c-0.2-0.2-0.4-0.3-0.6-0.3c-0.2,0-0.5,0.1-0.6,0.3c-0.2,0.2-0.3,0.4-0.3,0.6c0,0.2,0.1,0.5,0.3,0.6l0,0l3.8,4.2l-4.3,4.3
            c-0.2,0.2-0.3,0.4-0.3,0.6c0,0.2,0.1,0.5,0.3,0.6c0.2,0.2,0.4,0.3,0.6,0.3c0.2,0,0.5-0.1,0.6-0.3l4.2-4.2l3.8,4.2l0,0
            c0.2,0.2,0.4,0.3,0.6,0.3c0.2,0,0.5-0.1,0.6-0.3c0.2-0.2,0.3-0.4,0.3-0.6c0-0.2-0.1-0.5-0.3-0.6l0,0L26.9,16l4.3-4.3
            C31.4,11.6,31.5,11.3,31.5,11.1z"/>
    </symbol>
    <symbol id="icon_vol">
        <path display="inline" d="M0.4,10.4v11.2h9.2l7.6,7.6V2.8l-7.6,7.6H0.4z M11.1,12l3.8-3.8v15.6L11.1,20l-0.7-0.7H9.6H2.6v-6.7h6.9
            h0.9L11.1,12z"/>
        <path display="inline" d="M27.4,28.6c2.6-3.5,4.2-7.9,4.2-12.6c0-4.7-1.6-9.1-4.2-12.6l-1.8,1.3c2.4,3.2,3.8,7.1,3.8,11.3
            c0,4.2-1.4,8.2-3.8,11.3L27.4,28.6z"/>
        <path display="inline" d="M22.1,24.7c1.8-2.4,2.9-5.4,2.9-8.7c0-3.2-1.1-6.2-2.9-8.7l-1.8,1.3c1.5,2,2.4,4.6,2.4,7.3
            c0,2.7-0.9,5.3-2.4,7.3L22.1,24.7z"/>
    </symbol>
    <symbol id="icon_refresh">
        <path display="inline" d="M31,0c-1.1,0-2,0.9-2,2v4.7C26.7,4,24,0,16.8,0C8.1,0,1,7.1,1,15.8s7.1,15.8,15.8,15.8
            c6.8,0,12.9-4.4,15-10.9c0.4-1.1-0.2-2.2-1.3-2.6s-2.2,0.2-2.6,1.3c-1.6,4.8-6,8-11.1,8c-6.4,0-11.7-5.2-11.7-11.7
            S10.4,4.1,16.8,4.1c4.6,0,7.1,2.8,9.1,5.8h-5.1c-1.1,0-2,0.9-2,2c0,1.1,0.9,2,2,2H31c1.1,0,2-0.9,2-2V2C33,0.9,32.1,0,31,0z"/>
    </symbol>
    <symbol id="icon_more">
        <path d="M3.3,12.8c-1.7,0-3.2,1.4-3.2,3.2s1.4,3.2,3.2,3.2c1.7,0,3.2-1.4,3.2-3.2S5.1,12.8,3.3,12.8z M3.3,18.1
		c-1.2,0-2.1-0.9-2.1-2.1c0-1.2,0.9-2.1,2.1-2.1c1.2,0,2.1,0.9,2.1,2.1C5.4,17.2,4.5,18.1,3.3,18.1z"/>
	<path d="M28.7,12.8c-1.7,0-3.2,1.4-3.2,3.2s1.4,3.2,3.2,3.2c1.7,0,3.2-1.4,3.2-3.2S30.4,12.8,28.7,12.8z M28.7,18.1
		c-1.2,0-2.1-0.9-2.1-2.1c0-1.2,0.9-2.1,2.1-2.1c1.2,0,2.1,0.9,2.1,2.1C30.8,17.2,29.8,18.1,28.7,18.1z"/>
	<path d="M16,12.8c-1.7,0-3.2,1.4-3.2,3.2s1.4,3.2,3.2,3.2c1.7,0,3.2-1.4,3.2-3.2S17.7,12.8,16,12.8z M16,18.1
		c-1.2,0-2.1-0.9-2.1-2.1c0-1.2,0.9-2.1,2.1-2.1c1.2,0,2.1,0.9,2.1,2.1C18.1,17.2,17.2,18.1,16,18.1z"/>
    </symbol>
    <symbol id="icon_more-solid">
        <path d="M3.3,12.8c-1.7,0-3.2,1.4-3.2,3.2s1.4,3.2,3.2,3.2c1.7,0,3.2-1.4,3.2-3.2S5.1,12.8,3.3,12.8z"/>
	<path d="M28.7,12.8c-1.7,0-3.2,1.4-3.2,3.2s1.4,3.2,3.2,3.2c1.7,0,3.2-1.4,3.2-3.2S30.4,12.8,28.7,12.8z"/>
	<path d="M16,12.8c-1.7,0-3.2,1.4-3.2,3.2s1.4,3.2,3.2,3.2c1.7,0,3.2-1.4,3.2-3.2S17.7,12.8,16,12.8z"/>
    </symbol>
    <symbol id="icon_mail">
        <path display="inline" d="M30,4H2C0.9,4,0,4.9,0,6v20c0,1.1,0.9,2,2,2h28c1.1,0,2-0.9,2-2V6C32,4.9,31.1,4,30,4z M11.4,18.1
		l4.6,3.2l4.6-3.2l8,8H3.4L11.4,18.1z M2,24.6V11.7l7.7,5.2L2,24.6z M22.3,16.9l7.7-5.3v13L22.3,16.9z M30,6v3.2l0-0.1l-14,9.6
		L2,9.3V6H30z"/>
    </symbol>
    <symbol id="icon_mail-solid">
<path d="M11.4,18.1l4.6,3.2l4.6-3.2l8,8H3.4L11.4,18.1z M2,24.6V11.7l7.7,5.2L2,24.6z M22.3,16.9l7.7-5.3v13L22.3,16.9z M30,6v3.2
		l0-0.1l-14,9.6L2,9.3V6H30z"/>
    </symbol>
    <symbol id="icon_camera">
        <path d="M30,8h-4c0,0-1.2,0-2-2c-0.4-1-0.9-2-2-2h-8c-1.1,0-1.6,1-2,2c-0.8,2-2,2-2,2H8c0-1.1-0.9-2-2-2H4C2.9,6,2,6.9,2,8
		c-1.1,0-2,0.9-2,2v16c0,1.1,0.9,2,2,2h28c1.1,0,2-0.9,2-2v-8.2V16v-6C32,8.9,31.1,8,30,8z M30,26H2v-8h9.1c0.5,3.4,3.4,6,6.9,6
		c3.6,0,6.5-2.7,6.9-6.2H30V26z M13,17c0-2.8,2.2-5,5-5s5,2.2,5,5c0,2.8-2.2,5-5,5S13,19.8,13,17z M24.9,16c-0.5-3.4-3.4-6-6.9-6
		s-6.4,2.6-6.9,6H2v-6h2h2h4c1.2,0,2.9-0.9,3.9-3.2C14,6.3,14.1,6.1,14.2,6h7.6c0.1,0.2,0.3,0.6,0.4,0.8C23.5,9.8,25.6,10,26,10h4v6
		H24.9z M4,13c0,0.6,0.4,1,1,1s1-0.4,1-1s-0.4-1-1-1S4,12.5,4,13z"/>
    </symbol>
    <symbol id="icon_comment">
        <path display="inline" d="M1.9,29.4C2.1,29.7,2.4,30,2.8,30c2.9,0,5.3-0.7,8.1-2.3c1.3,0.2,4,0.5,5.1,0.5c8.8,0,15.9-5.8,15.9-13
            S24.8,2,16,2S0.1,7.9,0.1,15.1c0,3.4,1.6,6.7,4.5,9.1C4,25.6,3.1,27,2,28.3C1.8,28.6,1.7,29,1.9,29.4z M2.1,15.1C2.1,9,8.3,4,16,4
            s13.9,4.9,13.9,11s-6.2,11-13.9,11c-1.1,0-4.1-0.3-5.1-0.5c-0.2,0-0.5,0-0.7,0.1c-1.9,1.1-3.5,1.8-5.2,2.1c0.8-1.1,1.4-2.3,1.9-3.6
            c0.2-0.4,0-0.9-0.3-1.2C3.7,20.9,2.1,18.1,2.1,15.1z"/>
    </symbol>
    <symbol id="icon_comment-solid">
        <path d="M2.2,29.1c0.2,0.3,0.5,0.6,0.9,0.6c2.8,0,5.2-0.7,7.9-2.3c1.3,0.2,3.9,0.5,5,0.5c8.6,0,15.6-5.7,15.6-12.8S24.6,2.3,16,2.3
		S0.4,8,0.4,15.1c0,3.3,1.6,6.5,4.4,8.9c-0.6,1.5-1.5,2.8-2.5,4.1C2,28.4,2,28.8,2.2,29.1z"/>
    </symbol>
    <symbol id="icon_settings">
        <path display="inline" d="M17.8,1.7v2.1v1L18.7,5c1.1,0.3,2.1,0.7,3,1.3l0.8,0.5l0.7-0.7l1.5-1.5l2.6,2.6l-1.5,1.5l-0.7,0.7
            l0.5,0.8c0.5,0.9,0.9,1.9,1.2,3l0.2,1h1h2.2V18h-2.3H27l-0.3,0.9c-0.3,1-0.7,1.9-1.2,2.8L25,22.5l0.7,0.7l1.7,1.7l-2.6,2.6L23,25.8
            l-0.7-0.7l-0.8,0.5c-0.9,0.5-1.8,0.9-2.8,1.1L17.8,27v1v2.5H14v-2.5v-1l-0.9-0.2c-1-0.3-1.9-0.6-2.8-1.1l-0.8-0.5l-0.7,0.7
            l-1.7,1.7l-2.6-2.6l1.7-1.7l0.7-0.7l-0.5-0.8c-0.5-0.9-0.9-1.8-1.2-2.8L4.9,18H3.9H1.6v-3.7h2.2h1l0.2-1c0.2-1,0.6-2,1.2-3l0.5-0.8
            L6,8.8L4.5,7.3l2.6-2.6l1.5,1.5l0.7,0.7l0.8-0.5c0.9-0.6,1.9-1,3-1.3L14,4.8v-1V1.7H17.8 M15.9,21.7c3.1,0,5.6-2.5,5.6-5.6
            c0-3.1-2.5-5.6-5.6-5.6s-5.6,2.5-5.6,5.6C10.3,19.2,12.8,21.7,15.9,21.7 M19,0.5h-6.2v3.3c-1.2,0.3-2.3,0.8-3.3,1.4L7.1,2.9
            L2.7,7.3l2.4,2.4c-0.6,1-1,2.1-1.3,3.3H0.3v6.2h3.6c0.3,1.1,0.8,2.2,1.4,3.1l-2.6,2.6l4.4,4.4l2.6-2.6c1,0.5,2,1,3.1,1.2v3.7H19
            v-3.7c1.1-0.3,2.1-0.7,3.1-1.2l2.6,2.6l4.4-4.4l-2.6-2.6c0.6-1,1-2,1.4-3.1h3.6V13H28c-0.3-1.2-0.7-2.3-1.3-3.3l2.4-2.4l-4.4-4.4
            l-2.4,2.4c-1-0.6-2.1-1.1-3.3-1.4V0.5L19,0.5z M15.9,20.4c-2.4,0-4.4-2-4.4-4.4c0-2.4,2-4.4,4.4-4.4s4.4,2,4.4,4.4
            C20.3,18.5,18.3,20.4,15.9,20.4L15.9,20.4z"/>
    </symbol>
    <symbol id="icon_save">
        <path display="inline" d="M25,0h-4H9H3C1.9,0,1,0.9,1,2v28c0,1.1,0.9,2,2,2h28c1.1,0,2-0.9,2-2V6l-6-6H25z M25,2v8h-4V2H25z M19,2
            v8H9V2H19z M9,30V18h16v12H9z M31,30h-4V18c0-1.1-0.9-2-2-2H9c-1.1,0-2,0.9-2,2v12H3V2h4v8c0,1.1,0.9,2,2,2h12h4c1.1,0,2-0.9,2-2
            V2.8l4,4V30z"/>
    </symbol>
    <symbol id="icon_heart">
        <path display="inline" d="M33,11.8c-0.1-4.9-4.1-9.3-9-9.3c-2.8,0-5.4,1.5-7,3.7c-1.6-2.2-4.2-3.7-7-3.7c-4.9,0-8.9,4.4-9,9.3h0
            c0,0,0,0.1,0,0.1c0,0,0,0,0,0.1c0,0.1,0,0.2,0,0.4C1.5,24.9,16.9,30,16.9,30S32.5,24.9,33,12.4c0-0.1,0-0.3,0-0.4
            C33,12,33,11.9,33,11.8C33,11.9,33,11.9,33,11.8L33,11.8z M31,12.3c-0.4,9.6-11.3,14.5-14.1,15.6C14.1,26.8,3.4,21.9,3,12.3
            c0-0.1,0-0.2,0-0.3c0,0,0-0.1,0-0.1c0.1-4,3.3-7.3,7-7.3c2.1,0,4,1,5.4,2.9c0.4,0.5,1,0.8,1.6,0.8s1.2-0.3,1.6-0.8
            C20,5.6,21.9,4.6,24,4.6c3.7,0,6.9,3.4,7,7.3c0,0,0,0.1,0,0.1C31,12.1,31,12.2,31,12.3z"/>
    </symbol>
    <symbol id="icon_heart-solid">
        <path display="inline" d="M33,11.8c-0.1-4.9-4.1-9.3-9-9.3c-2.8,0-5.4,1.5-7,3.7c-1.6-2.2-4.2-3.7-7-3.7c-4.9,0-8.9,4.4-9,9.3h0
            c0,0,0,0.1,0,0.1c0,0,0,0,0,0.1c0,0.1,0,0.2,0,0.4C1.5,24.9,16.9,30,16.9,30S32.5,24.9,33,12.4c0-0.1,0-0.3,0-0.4
            C33,12,33,11.9,33,11.8C33,11.9,33,11.9,33,11.8L33,11.8z"/>
    </symbol>
    <symbol id="icon_search">
        <path display="inline" d="M20,0C12.8,0,7,5.8,7,13c0,3.1,1.1,5.9,2.9,8.2l-8.6,8.6c-0.5,0.5-0.5,1.4,0,2s1.4,0.5,2,0l8.6-8.6
            c2.2,1.8,5.1,2.9,8.2,2.9c7.2,0,13-5.8,13-13S27.2,0,20,0z M20,24c-6.1,0-11-4.9-11-11S13.9,2,20,2s11,4.9,11,11S26.1,24,20,24z"/>
    </symbol>
    <symbol id="social_facebook">
        <path display="inline" d="M12.1,32h6l0-16l5.4,0l0.6-5.5h-6l0-2.8c0-1.4,0.1-2.2,2.2-2.2H24V0h-5.5C13.3,0,12,2.7,12,7.2l0,3.2
            l-4,0V16h4L12.1,32z"/>
    </symbol>
    <symbol id="social_twitter">
        <path display="inline" d="M32.1,3.5c-1.3,0.8-2.7,1.3-4.2,1.6C26.8,3.8,25,3,23.2,3c-3.6,0-6.6,2.9-6.6,6.6c0,0.5,0.1,1,0.2,1.5
            C11.3,10.8,6.5,8.2,3.2,4.2c-0.6,1-0.9,2.1-0.9,3.3c0,2.3,1.2,4.3,2.9,5.5c-1.1,0-2.1-0.3-3-0.8c0,0,0,0.1,0,0.1
            c0,3.2,2.3,5.8,5.3,6.4c-0.6,0.1-1.1,0.2-1.7,0.2c-0.4,0-0.8,0-1.2-0.1c0.8,2.6,3.3,4.5,6.1,4.6c-2.2,1.8-5.1,2.8-8.2,2.8
            c-0.5,0-1.1,0-1.6-0.1c2.9,1.9,6.4,3,10.1,3c12.1,0,18.7-10,18.7-18.7c0-0.3,0-0.6,0-0.9C31,8.5,32.1,7.4,33,6.1
            c-1.2,0.5-2.4,0.9-3.8,1C30.6,6.3,31.6,5,32.1,3.5z"/>
    </symbol>
    <symbol id="social_share">
        <path display="inline" fill="none" d="M21.2,23.1c-1.9,0-3.4,1.5-3.4,3.4c0,1.9,1.5,3.4,3.4,3.4c1.9,0,3.4-1.5,3.4-3.4
            C24.6,24.6,23.1,23.1,21.2,23.1z"/>
        <path display="inline" fill="none" d="M27.1,2.1c-1.9,0-3.4,1.5-3.4,3.4c0,1.9,1.5,3.4,3.4,3.4c1.9,0,3.4-1.5,3.4-3.4
            C30.5,3.6,28.9,2.1,27.1,2.1z"/>
        <path display="inline" fill="none" d="M4.9,18.2c1.9,0,3.4-1.5,3.4-3.4c0-1.9-1.5-3.4-3.4-3.4c-1.9,0-3.4,1.5-3.4,3.4
            C1.5,16.7,3.1,18.2,4.9,18.2z"/>
        <path display="inline" d="M27.1,0.7c-2.6,0-4.8,2.1-4.8,4.8c0,0.4,0.1,0.8,0.2,1.2L9,12.4C8.2,11,6.7,10,4.9,10
            c-2.6,0-4.8,2.1-4.8,4.8c0,2.6,2.1,4.8,4.8,4.8c1.3,0,2.6-0.6,3.4-1.5l8.6,6.2c-0.3,0.6-0.5,1.4-0.5,2.1c0,2.6,2.1,4.8,4.8,4.8
            c2.6,0,4.8-2.1,4.8-4.8c0-2.6-2.1-4.8-4.8-4.8c-1.4,0-2.6,0.6-3.5,1.5L9.2,17c0.3-0.7,0.5-1.4,0.5-2.2c0-0.4-0.1-0.8-0.2-1.2L23,8
            c0.8,1.4,2.3,2.3,4.1,2.3c2.6,0,4.8-2.1,4.8-4.8C31.9,2.9,29.7,0.7,27.1,0.7z M27.1,8.9c-1.9,0-3.4-1.5-3.4-3.4
            c0-1.9,1.5-3.4,3.4-3.4c1.9,0,3.4,1.5,3.4,3.4C30.5,7.4,28.9,8.9,27.1,8.9z M21.2,29.9c-1.9,0-3.4-1.5-3.4-3.4
            c0-1.9,1.5-3.4,3.4-3.4c1.9,0,3.4,1.5,3.4,3.4C24.6,28.4,23.1,29.9,21.2,29.9z M4.9,11.5c1.9,0,3.4,1.5,3.4,3.4
            c0,1.9-1.5,3.4-3.4,3.4c-1.9,0-3.4-1.5-3.4-3.4C1.5,13,3.1,11.5,4.9,11.5z"/>
    </symbol>
    <symbol id="social_share-solid">
        <path fill="none" d="M21.2,23.1c-1.9,0-3.4,1.5-3.4,3.4c0,1.9,1.5,3.4,3.4,3.4c1.9,0,3.4-1.5,3.4-3.4
		C24.6,24.6,23.1,23.1,21.2,23.1z"/>
	<path fill="none" d="M27.1,2.1c-1.9,0-3.4,1.5-3.4,3.4c0,1.9,1.5,3.4,3.4,3.4c1.9,0,3.4-1.5,3.4-3.4C30.5,3.6,28.9,2.1,27.1,2.1z"
		/>
	<path fill="none" d="M4.9,18.2c1.9,0,3.4-1.5,3.4-3.4c0-1.9-1.5-3.4-3.4-3.4c-1.9,0-3.4,1.5-3.4,3.4C1.5,16.7,3.1,18.2,4.9,18.2z"
		/>
	<path d="M27.1,0.7c-2.6,0-4.8,2.1-4.8,4.8c0,0.4,0.1,0.8,0.2,1.2L9,12.4C8.2,11,6.7,10,4.9,10c-2.6,0-4.8,2.1-4.8,4.8
		c0,2.6,2.1,4.8,4.8,4.8c1.3,0,2.6-0.6,3.4-1.5l8.6,6.2c-0.3,0.6-0.5,1.4-0.5,2.1c0,2.6,2.1,4.8,4.8,4.8c2.6,0,4.8-2.1,4.8-4.8
		c0-2.6-2.1-4.8-4.8-4.8c-1.4,0-2.6,0.6-3.5,1.5L9.2,17c0.3-0.7,0.5-1.4,0.5-2.2c0-0.4-0.1-0.8-0.2-1.2L23,8
		c0.8,1.4,2.3,2.3,4.1,2.3c2.6,0,4.8-2.1,4.8-4.8C31.9,2.9,29.7,0.7,27.1,0.7z"/>
    </symbol>
    <symbol id="icon_pause">
        <path d="M16,32c8.8,0,16-7.2,16-16S24.8,0,16,0S0,7.2,0,16S7.2,32,16,32z M16,2c7.7,0,14,6.3,14,14s-6.3,14-14,14S2,23.7,2,16
		S8.3,2,16,2z M12,22c1.1,0,2-0.9,2-2v-8c0-1.1-0.9-2-2-2s-2,0.9-2,2v8C10,21.1,10.9,22,12,22z M20,22c1.1,0,2-0.9,2-2v-8
		c0-1.1-0.9-2-2-2s-2,0.9-2,2v8C18,21.1,18.9,22,20,22z"/>
    </symbol>
    <symbol id="icon_pause-solid">
        <path d="M16,0C7.2,0,0,7.2,0,16s7.2,16,16,16s16-7.2,16-16S24.8,0,16,0z M14,20c0,1.1-0.9,2-2,2s-2-0.9-2-2v-8c0-1.1,0.9-2,2-2
		s2,0.9,2,2V20z M22,20c0,1.1-0.9,2-2,2s-2-0.9-2-2v-8c0-1.1,0.9-2,2-2s2,0.9,2,2V20z"/>
    </symbol>
    <symbol id="icon_play">
        <path d="M16,0.2C7.3,0.2,0.2,7.3,0.2,16S7.3,31.8,16,31.8S31.8,24.7,31.8,16S24.7,0.2,16,0.2z M16,29.7C8.5,29.7,2.3,23.5,2.3,16
		S8.5,2.3,16,2.3S29.7,8.5,29.7,16S23.5,29.7,16,29.7z M23,15.3l-8.1-6.4c-0.5-0.4-1.2-0.4-1.7,0c0,0,0,0,0,0
		c-0.2,0.2-0.4,0.4-0.4,0.7v12.9c0,0.3,0.1,0.5,0.4,0.7l0,0c0.5,0.4,1.2,0.4,1.7,0l8.2-6.4C23.5,16.3,23.5,15.7,23,15.3
		C23,15.3,23,15.3,23,15.3z"/>
    </symbol>
    <symbol id="icon_play-solid">
        <path d="M16,0.2C7.3,0.2,0.2,7.3,0.2,16S7.3,31.8,16,31.8S31.8,24.7,31.8,16S24.7,0.2,16,0.2z M23,16.6l-8.2,6.4
		c-0.5,0.4-1.2,0.4-1.7,0l0,0c-0.2-0.2-0.4-0.4-0.4-0.7V9.5c0-0.3,0.1-0.5,0.4-0.7c0,0,0,0,0,0c0.5-0.4,1.2-0.4,1.7,0l8.1,6.4
		c0,0,0,0,0,0C23.5,15.7,23.5,16.3,23,16.6z"/>
    </symbol>
    <symbol id="icon_recipe">
        <path d="M4,32h24c1.1,0,2-0.9,2-2V2c0-1.1-0.9-2-2-2H4C2.9,0,2,0.9,2,2v28C2,31.1,2.9,32,4,32z M4,2h24v28H4V2z M23,6h-8
		c-0.6,0-1,0.4-1,1s0.4,1,1,1h8c0.6,0,1-0.4,1-1S23.6,6,23,6z M23,12H9c-0.6,0-1,0.4-1,1s0.4,1,1,1h14c0.6,0,1-0.4,1-1
		S23.6,12,23,12z M23,18H9c-0.6,0-1,0.4-1,1s0.4,1,1,1h14c0.6,0,1-0.4,1-1S23.6,18,23,18z M23,24H9c-0.6,0-1,0.4-1,1s0.4,1,1,1h14
		c0.6,0,1-0.4,1-1S23.6,24,23,24z"/>
    </symbol>
</svg>
