
<svg xmlns="http://www.w3.org/2000/svg" style="display:none; ">
    <symbol id="right-arrow">
        <polygon display="inline" fill="#2F292B" points="6.9,1.4 6.9,24.3 21.5,12.9 	"/>
    </symbol>
    <symbol id="menu">
        <path display="inline" fill="#2F292B" d="M12.5,2.6c-5.5,0-10,4.5-10,10s4.5,10,10,10s10-4.5,10-10S18,2.6,12.5,2.6z M7.1,7.8h10.7
            c0.4,0,0.8,0.3,0.8,0.8c0,0.4-0.3,0.8-0.8,0.8H7.1C6.7,9.3,6.3,9,6.3,8.5C6.3,8.1,6.7,7.8,7.1,7.8z M7.1,12.2h10.7
            c0.4,0,0.8,0.3,0.8,0.8c0,0.4-0.3,0.8-0.8,0.8H7.1c-0.4,0-0.8-0.3-0.8-0.8C6.3,12.5,6.7,12.2,7.1,12.2z M17.9,18.2H7.2
            c-0.4,0-0.8-0.3-0.8-0.8s0.3-0.8,0.8-0.8h10.7c0.4,0,0.8,0.3,0.8,0.8S18.3,18.2,17.9,18.2z"/>
    </symbol>
    <symbol id="leaderboard">
        <path display="inline" fill="#2F292B" d="M2.5,2.5c0,0,0.3,9.6,7.8,10.3v2.7l-0.9,1.6h0.9h0.1h4.5h0.8l-0.8-1.7v-2.6
            c7.4-0.8,7.7-10.3,7.7-10.3H2.5z M4.6,3.9h3.1c0,4.1,0.9,6.7,0.9,6.7C5.1,8.7,4.6,3.9,4.6,3.9z M9.4,8.4C9.1,7,9,3.9,9,3.9h1.1
            L9.4,8.4z M18.3,9.6c0,0,0.6-2.3,0.6-5.7h2C20.9,3.9,20.6,8,18.3,9.6z"/>
        <path display="inline" fill="#2F292B" d="M6.8,22.6h11.3v-4.4H6.8V22.6z M9.3,19.7h6.4v1.8H9.3V19.7z"/>
    </symbol>
    <symbol id="gallery">
        <rect x="2.5" y="2.3" display="inline" fill="#2F292B" width="9.3" height="9.3"/>
        <rect x="13.2" y="2.3" display="inline" fill="#2F292B" width="9.3" height="9.3"/>
        <rect x="2.5" y="13.4" display="inline" fill="#2F292B" width="9.3" height="9.3"/>
        <rect x="13.2" y="13.4" display="inline" fill="#2F292B" width="9.3" height="9.3"/>
    </symbol>
    <symbol id="book">
        <polygon display="inline" fill="#2F292B" points="21.2,1.7 14,6.2 21.2,3.4 	"/>
        <polygon display="inline" fill="#2F292B" points="3.8,1.6 3.7,3.4 11.8,6.4 	"/>
        <polygon display="inline" fill="#2F292B" points="21.2,4.4 15,6.8 13.2,7.5 13.3,23.3 22.5,19.7 22.4,3.9 	"/>
        <polygon display="inline" fill="#2F292B" points="3.6,4.4 2.5,4 2.6,19.8 12.3,23.4 12.2,7.5 10.2,6.8 	"/>
    </symbol>
    <symbol id="account">
        <circle fill="#2F292B" cx="12.5" cy="8.5" r="6"/>
        <path fill="#2F292B" d="M2.8,22.6c0,0,2.6-6.9,9.2-6.9l1,0c6.6,0,9.2,6.9,9.2,6.9H2.8z"/>
    </symbol>
</svg>
