<svg id="waffle-svg" xmlns="http://www.w3.org/2000/svg">
    <path fill="none" d="M151.8,167.5c-0.8,0.6-1.6,1.1-2.4,1.7C150.3,168.6,151,168.1,151.8,167.5z"/>
    <path fill="none" d="M164.2,39.3c0.1,0.1,0.2,0.2,0.3,0.3C164.4,39.5,164.3,39.4,164.2,39.3L164.2,39.3z"/>
    <path fill="none" d="M147.8,170.3c0.3-0.2,0.5-0.3,0.8-0.5C148.3,170,148,170.2,147.8,170.3L147.8,170.3z"/>
    <path fill="none" d="M53.5,170.3L53.5,170.3c-0.3-0.2-0.6-0.4-0.9-0.6C52.9,169.9,53.2,170.1,53.5,170.3z"/>
    <path fill="none" d="M155.5,164.7c-1,0.8-1.9,1.5-2.9,2.3C153.6,166.2,154.5,165.5,155.5,164.7z"/>
    <path fill="none" d="M73.1,179.8c0.5,0.2,1,0.3,1.5,0.5C74.1,180.1,73.6,180,73.1,179.8L73.1,179.8z"/>
    <path fill="none" d="M174.6,53.1c0.2,0.4,0.4,0.7,0.6,1.1C175.1,53.9,174.9,53.5,174.6,53.1z"/>
    <path fill="none" d="M172.2,49.4C172.3,49.4,172.3,49.4,172.2,49.4C172.3,49.4,172.3,49.4,172.2,49.4L172.2,49.4z"/>
    <path fill="none" d="M165.7,40.9c-0.3-0.3-0.6-0.6-0.8-0.9C165.1,40.2,165.4,40.6,165.7,40.9L165.7,40.9z"/>
    <path fill="none" d="M180.9,65.7c-0.1-0.2-0.2-0.4-0.3-0.7C180.7,65.2,180.8,65.4,180.9,65.7L180.9,65.7z"/>
    <path fill="none" d="M178.8,60.9c0.3,0.5,0.5,1.1,0.7,1.7C179.3,62,179.1,61.5,178.8,60.9z"/>
    <path fill="none" d="M176.8,57c0.3,0.5,0.5,1,0.8,1.5C177.3,58,177.1,57.5,176.8,57z"/>
    <path fill="none" d="M24.2,138.3c-0.3-0.5-0.6-1.1-0.9-1.7C23.7,137.2,24,137.7,24.2,138.3z"/>
    <path fill="none" d="M26.4,142.1c-0.3-0.5-0.6-1-0.9-1.6C25.8,141.1,26.1,141.6,26.4,142.1z"/>
    <path fill="none" d="M22.3,134.3c-0.3-0.6-0.5-1.2-0.8-1.7C21.7,133.2,22,133.7,22.3,134.3z"/>
    <path fill="none" d="M126.1,180.5c-1.2,0.4-2.4,0.7-3.5,1C123.8,181.2,124.9,180.8,126.1,180.5z"/>
    <path fill="none" d="M149.2,26.3c0.9,0.6,1.9,1.3,2.8,2C151.1,27.6,150.1,27,149.2,26.3z"/>
    <path fill="none" d="M36.7,156L36.7,156C36.7,156,36.7,156,36.7,156C36.7,156,36.7,156,36.7,156z"/>
    <path fill="none" d="M35,154L35,154c0.5,0.6,1.1,1.3,1.6,1.9C36.1,155.3,35.5,154.7,35,154z"/>
    <path fill="none" d="M20.1,129.2c0.1,0.3,0.3,0.7,0.4,1C20.4,129.9,20.2,129.6,20.1,129.2L20.1,129.2z"/>
    <path fill="none" d="M121.9,181.6c-1.2,0.3-2.4,0.6-3.6,0.8C119.5,182.2,120.7,181.9,121.9,181.6z"/>
    <path fill="none" d="M111.1,183.6c1-0.1,1.5-0.2,2.2-0.3C112.6,183.4,112.1,183.5,111.1,183.6L111.1,183.6z"/>
    <path fill="none" d="M130.1,179.1c-1,0.4-2.3,0.8-3.4,1.2C127.9,179.9,129.1,179.5,130.1,179.1L130.1,179.1z"/>
    <path fill="none" d="M28.5,145.5c-0.2-0.4-0.5-0.8-0.7-1.1C28.1,144.8,28.3,145.2,28.5,145.5L28.5,145.5z"/>
    <path fill="none" d="M117.7,182.6c-1.3,0.3-2.6,0.5-3.9,0.7C115.1,183.1,116.4,182.9,117.7,182.6z"/>
    <path fill="none" d="M45.6,164.5C45.6,164.5,45.6,164.5,45.6,164.5C45.6,164.5,45.6,164.5,45.6,164.5L45.6,164.5z"/>
    <path fill="none" d="M48.6,166.9c-1-0.7-1.9-1.5-2.9-2.3C46.7,165.4,47.6,166.1,48.6,166.9z"/>
    <path fill="none" d="M52.1,169.3c-1-0.7-2-1.4-2.9-2.1C50.1,168,51.1,168.7,52.1,169.3z"/>
    <path fill="none" d="M155.1,30.9c-1-0.7-1.8-1.4-2.7-2.1C153.4,29.5,154.1,30.2,155.1,30.9L155.1,30.9z"/>
    <path fill="none" d="M54.7,24.3c-0.8,1-1.6,1-2.4,1.6C53.1,25.4,54,25.3,54.7,24.3L54.7,24.3z"/>
    <path fill="none" d="M83.6,13.1c1.2-0.2,2.5-0.5,3.7-0.7C86.1,12.6,84.8,12.8,83.6,13.1z"/>
    <path fill="none" d="M49.3,28.3c1-0.7,1.9-1.4,2.9-2.1C51.2,26.9,50.3,27.6,49.3,28.3z"/>
    <path fill="none" d="M92.1,11.9c-2,0.1-2.6,0.3-3.9,0.5C89.5,12.2,90.1,12,92.1,11.9L92.1,11.9z"/>
    <path fill="none" d="M36.7,39.7C36.7,39.7,36.7,39.7,36.7,39.7C36.7,39.7,36.7,39.7,36.7,39.7L36.7,39.7z"/>
    <path fill="none" d="M181.2,129.2c-0.1,0.3-0.3,0.7-0.4,1C180.9,129.9,181.1,129.6,181.2,129.2L181.2,129.2z"/>
    <path fill="none" d="M73.1,15.9c0.5-0.2,1-0.4,1.5-0.5C74.1,15.5,73.6,15.7,73.1,15.9L73.1,15.9z"/>
    <path fill="none" d="M45.8,31.1c0.9-0.7,1.8-1.5,2.8-2.2C47.6,29.6,46.7,30.3,45.8,31.1z"/>
    <path fill="none" d="M45.6,31.2C45.6,31.2,45.6,31.2,45.6,31.2C45.6,31.2,45.6,31.2,45.6,31.2L45.6,31.2z"/>
    <path fill="none" d="M29.1,49.4C29,49.4,29,49.4,29.1,49.4C29,49.4,29,49.4,29.1,49.4L29.1,49.4z"/>
    <path fill="none" d="M26,54.2c0.2-0.4,0.4-0.7,0.6-1.1C26.4,53.5,26.2,53.9,26,54.2z"/>
    <path fill="none" d="M20.4,65.7c0.1-0.2,0.2-0.5,0.3-0.7C20.6,65.2,20.5,65.4,20.4,65.7L20.4,65.7z"/>
    <path fill="none" d="M185.1,116.1c0,1.1-0.5,2.2-0.8,3.3C184.6,118.3,185.1,117.2,185.1,116.1L185.1,116.1z"/>
    <path fill="none" d="M23.7,58.5c0.3-0.5,0.5-1,0.8-1.5C24.2,57.5,24,58,23.7,58.5z"/>
    <path fill="none" d="M35.7,40.9c0.3-0.4,0.6-0.8,1-1.1C36.3,40.1,36,40.5,35.7,40.9L35.7,40.9z"/>
    <path fill="none" d="M21.7,62.6c0.2-0.6,0.5-1.1,0.7-1.7C22.2,61.5,22,62,21.7,62.6z"/>
    <path fill="none" d="M183.6,122.3c0.2-1,0.4-1.6,0.7-2.4C184,120.7,183.8,121.3,183.6,122.3L183.6,122.3z"/>
    <path fill="none" d="M109.2,11.8c0.1,0,0.1,0,0.2,0C109.3,11.8,109.2,11.8,109.2,11.8L109.2,11.8z"/>
    <path fill="none" d="M127.8,15.7c-0.4-0.1-0.7-0.2-1.1-0.3C127.1,15.5,127.4,15.6,127.8,15.7L127.8,15.7z"/>
    <path fill="none" d="M122.5,14.2c1.2,0.3,2.4,0.6,3.6,1C124.9,14.9,123.7,14.5,122.5,14.2z"/>
    <path fill="none" d="M82.9,182.5c-1.2-0.3-2.4-0.5-3.6-0.8C80.5,181.9,81.7,182.2,82.9,182.5z"/>
    <path fill="none" d="M118.3,13.2c1.2,0.3,2.4,0.5,3.7,0.8C120.7,13.7,119.5,13.5,118.3,13.2z"/>
    <path fill="none" d="M146.5,24.3c0.8,1,1.6,1,2.4,1.5C148.1,25.3,147.3,25.3,146.5,24.3L146.5,24.3z"/>
    <path fill="none" d="M113.9,12.4c1.3,0.2,2.6,0.4,3.9,0.7C116.4,12.8,115.2,12.6,113.9,12.4z"/>
    <path fill="none" d="M78.7,181.5c-1.2-0.3-2.4-0.7-3.6-1C76.3,180.8,77.5,181.1,78.7,181.5z"/>
    <path fill="none" d="M109.7,11.9c1.3,0.1,2.6,0.3,3.9,0.5C112.4,12.2,111.1,12,109.7,11.9z"/>
    <path fill="none" d="M157.6,162.8c-0.5,0.4-1,0.9-1.5,1.3C156.6,163.7,157.1,163.3,157.6,162.8L157.6,162.8z"/>
    <path fill="none" d="M175.8,140.5c-0.3,0.5-0.6,1.1-0.9,1.6C175.2,141.6,175.5,141.1,175.8,140.5z"/>
    <path fill="none" d="M92.1,183.8L92.1,183.8c-2-0.1-2.6-0.3-3.9-0.5C89.5,183.5,90.1,183.7,92.1,183.8z"/>
    <path fill="none" d="M172.8,145.5c0.2-0.4,0.5-0.8,0.7-1.1C173.2,144.8,173,145.1,172.8,145.5L172.8,145.5z"/>
    <path fill="none" d="M75.1,15.2c1.2-0.4,2.4-0.7,3.6-1C77.5,14.5,76.3,14.9,75.1,15.2z"/>
    <path fill="none" d="M79.3,14.1c1.2-0.3,2.4-0.6,3.6-0.8C81.7,13.5,80.5,13.8,79.3,14.1z"/>
    <path fill="none" d="M87.3,183.3c-1.3-0.2-2.5-0.4-3.7-0.7C84.8,182.8,86.1,183.1,87.3,183.3z"/>
    <path fill="none" d="M179.8,132.6c-0.3,0.6-0.5,1.2-0.8,1.7C179.3,133.7,179.5,133.2,179.8,132.6z"/>
    <path fill="none" d="M177.9,136.6c-0.3,0.6-0.6,1.1-0.9,1.7C177.3,137.7,177.6,137.2,177.9,136.6z"/>
    <path fill="#D9DADB" d="M183.9,57c5.8,11.9,9.1,25.4,9.3,39.4h-91V4.4V4.3h-3v0.1v91.9h-92h0v3h0h92v91.1
        c-35-0.5-64.4-19.6-80.1-47.7c15.1,31,46.8,52.4,83.6,52.4c51.4,0,93-41.6,93-92.9C195.7,85.7,191.3,70.4,183.9,57z M102.1,190.5
        V99.3h91C192.4,149.3,152.1,189.6,102.1,190.5z"/>
    <path fill="#F0F0F1" d="M99.1,190.5V99.3h-92c0.2,16,4.7,30.6,11.9,43.6C34.8,171.1,64.1,190,99.1,190.5z M73.1,106.3h19v16h-19
        V106.3z M73.1,129.3h19v16h-19V129.3z M73.1,154.3h19v16h-19V154.3z M92.1,177.3v6.5v0c-2-0.1-2.8-0.3-4.1-0.5c-0.2,0-0.4,0-0.6-0.1
        c-1.3-0.2-2.5-0.4-3.8-0.7c-0.2,0-0.5-0.1-0.7-0.1c-1.2-0.3-2.4-0.5-3.6-0.8c-0.2-0.1-0.4-0.1-0.6-0.2c-1.2-0.3-2.4-0.7-3.6-1
        c-0.1,0-0.3-0.1-0.4-0.1c-0.5-0.2-1.5-0.3-1.5-0.5v0v-2.5H92.1z M45.1,106.3h19v16h-19V106.3z M45.1,129.3h19v16h-19V129.3z
         M64.1,154.3v16H53.6h0c-0.3,0-0.6-0.4-0.9-0.6c-0.2-0.1-0.4-0.3-0.6-0.4c-1-0.7-2-1.4-2.9-2.1c-0.2-0.1-0.3-0.3-0.5-0.4
        c-1-0.7-1.9-1.5-2.9-2.3c0,0-0.3-0.1-0.3-0.1c0,0-0.3,0-0.3,0v0v-10.2H64.1z M18.1,106.3h19v16h-19V106.3z M26.4,142.1
        c-0.3-0.5-0.6-1-0.9-1.6c-0.4-0.7-0.8-1.5-1.3-2.3c-0.3-0.6-0.6-1.1-0.9-1.7c-0.4-0.8-0.8-1.5-1.1-2.3c-0.3-0.6-0.5-1.2-0.8-1.7
        c-0.3-0.8-0.7-1.5-1-2.3c-0.1-0.3-0.3-1-0.4-1h0h17v16h-8.6h0c-0.2,0-0.5-0.7-0.7-1C27.3,143.5,26.9,142.9,26.4,142.1z M35,154h1.7
        v1.9v0c0,0,0,0,0,0c0,0,0,0-0.1-0.1C36.1,155.3,35.5,154.7,35,154L35,154z"/>
    <path fill="#F0F0F1" d="M99.1,96.3V4.4c-51,0.7-91.2,40.9-92,91.9H99.1z M37.1,89.3h-19v-16h19V89.3z M64.1,89.3h-19v-16h19V89.3z
         M64.1,65.3h-19v-16h19V65.3z M92.1,89.3h-19v-16h19V89.3z M92.1,65.3h-19v-16h19V65.3z M92.1,41.3h-19v-17h19V41.3z M75.1,15.2
        c1.2-0.4,2.4-0.7,3.6-1c0.2-0.1,0.4-0.1,0.6-0.2c1.2-0.3,2.4-0.6,3.6-0.8c0.2,0,0.4-0.1,0.6-0.1c1.2-0.2,2.5-0.5,3.7-0.7
        c0.2,0,0.5,0,0.7-0.1c1.3-0.2,2.1-0.4,4.1-0.5v0v5.5h-19v-1.4v0c0-0.2,1-0.3,1.5-0.5C74.8,15.3,74.9,15.3,75.1,15.2z M45.8,31.1
        c0.9-0.7,1.8-1.5,2.8-2.2c0.3-0.2,0.5-0.4,0.8-0.6c1-0.7,1.9-1.4,2.9-2.1c0,0,0.1-0.2,0.1-0.2c0.8-0.5,1.6-0.7,2.4-1.7h0h9.3v17h-19
        V31.2v0c0,0,0.3,0,0.3,0C45.4,31.1,45.7,31.1,45.8,31.1z M36.7,39.7C36.7,39.7,36.7,39.7,36.7,39.7L36.7,39.7l0,1.1h-1h0
        C36,40.5,36.3,40.1,36.7,39.7C36.7,39.7,36.7,39.7,36.7,39.7z M21.7,62.6c0.2-0.6,0.5-1.1,0.7-1.7c0.4-0.8,0.8-1.7,1.2-2.5
        c0.3-0.5,0.5-1,0.8-1.5c0.5-0.9,1-1.9,1.6-2.8c0.2-0.4,0.4-0.7,0.6-1.1c0.8-1.3,1.5-2.5,2.4-3.7c0,0,0-0.1,0-0.1h0h8.1v16H20.4h0
        c0.1,0,0.2-0.3,0.3-0.5C21,64,21.4,63.4,21.7,62.6z"/>
    <path fill="#F0F0F1" d="M102.1,96.3h91c-0.2-14-3.3-27.5-9.1-39.4C169.2,26.4,138.1,5,102.1,4.4V96.3z M128.1,89.3h-19v-16h19V89.3z
         M128.1,65.3h-19v-16h19V65.3z M128.1,41.3h-19v-17h19V41.3z M155.1,89.3h-18v-16h18V89.3z M155.1,65.3h-18v-16h18V65.3z
         M183.1,89.3h-19v-16h19V89.3z M174.6,53.1c0.2,0.4,0.4,0.7,0.6,1.1c0.5,0.9,1.1,1.8,1.6,2.8c0.3,0.5,0.5,1,0.8,1.5
        c0.4,0.8,0.8,1.6,1.2,2.5c0.3,0.5,0.5,1.1,0.7,1.7c0.4,0.8,0.7,1.4,1,2.2c0.1,0.2,0.2,0.5,0.3,0.5h0h-16.7v-16h8.1h0
        c0,0,0,0.1,0,0.1C173.1,50.6,173.9,51.9,174.6,53.1z M164.8,39.9c0.3,0.3,0.6,0.6,0.8,0.9h0h-1.4v-1.6v0c0.1,0.1,0.2,0.2,0.3,0.3
        C164.6,39.7,164.7,39.8,164.8,39.9z M149.2,26.3c0.9,0.6,1.9,1.3,2.8,2c0.2,0.2,0.4,0.3,0.6,0.5c0.9,0.7,1.6,1.4,2.6,2.1v0v10.4h-18
        v-17h9.4h0c0.8,1,1.6,1.1,2.4,1.7C149,26.1,149.1,26.3,149.2,26.3z M109.7,11.9c1.3,0.1,2.6,0.3,3.9,0.5c0.1,0,0.1,0,0.2,0
        c1.3,0.2,2.6,0.4,3.9,0.7c0.2,0,0.4,0.1,0.5,0.1c1.2,0.3,2.4,0.5,3.7,0.8c0.2,0.1,0.4,0.1,0.6,0.2c1.2,0.3,2.4,0.6,3.6,1
        c0.2,0.1,0.6,0.1,0.8,0.2c0.4,0.1,0.3,0.2,1.3,0.3v0v1.6h-19v-5.5v0c0,0,0.2,0,0.2,0C109.5,11.9,109.6,11.9,109.7,11.9z"/>
    <path fill="#F0F0F1" d="M102.1,99.3v91.1c50-0.8,90.3-41.1,91-91.1H102.1z M139.1,106.3h18v16h-18V106.3z M139.1,129.3h18v16h-18
        V129.3z M111.1,106.3h19v16h-19V106.3z M111.1,129.3h19v16h-19V129.3z M111.1,154.3h19v16h-19V154.3z M126.1,180.5
        c-1.2,0.4-2.4,0.7-3.5,1c-0.2,0.1-0.4,0.1-0.7,0.2c-1.2,0.3-2.4,0.6-3.6,0.8c-0.2,0-0.4,0.1-0.6,0.1c-1.3,0.3-2.6,0.5-3.9,0.7
        c-0.1,0-0.3,0-0.3,0c-0.7,0.1-1.4,0.2-2.4,0.3v0v-6.3h19v1.8v0c-1,0.4-2.3,0.8-3.4,1.1C126.5,180.3,126.3,180.4,126.1,180.5z
         M155.5,164.7c-1,0.8-1.9,1.5-2.9,2.3c-0.2,0.2-0.5,0.4-0.7,0.5c-0.8,0.6-1.6,1.1-2.4,1.7c-0.3,0.2-0.6,0.4-1,0.6
        c-0.3,0.2-0.5,0.5-0.8,0.5h0h-8.6v-16h18v8.5v0c0,0.4-0.8,0.9-1.3,1.3C155.6,164.3,155.7,164.5,155.5,164.7z M179.8,132.6
        c-0.3,0.6-0.5,1.2-0.8,1.7c-0.4,0.8-0.7,1.5-1.1,2.3c-0.3,0.6-0.6,1.1-0.9,1.7c-0.4,0.8-0.8,1.5-1.3,2.3c-0.3,0.5-0.6,1.1-0.9,1.6
        c-0.5,0.8-0.9,1.4-1.4,2.2c-0.2,0.4-0.5,1-0.7,1h0h-6.6v-16h15.1h0c-0.1,0-0.3,0.6-0.4,1C180.5,131.1,180.1,131.8,179.8,132.6z
         M184.3,119.9c-0.2,0.8-0.4,1.4-0.7,2.4h0h-17.4v-16h19v9.7v0.1c0,1.1-0.5,2.2-0.8,3.2C184.3,119.5,184.3,119.7,184.3,119.9z"/>
    <path fill="#E6E6E6" d="M36.7,40.9v-1.2c0,0,0,0,0,0c0,0,0,0,0,0c-0.3,0.4-0.6,0.7-1,1.1H36.7z"/>
    <path fill="#E6E6E6" d="M164.2,40.9h1.4c-0.3-0.3-0.5-0.6-0.8-0.9c-0.1-0.1-0.2-0.2-0.3-0.4c-0.1-0.1-0.2-0.2-0.3-0.3V40.9z"/>
    <path fill="#E6E6E6" d="M36.7,156C36.7,156,36.7,156,36.7,156l0-1.9H35C35.5,154.7,36.1,155.3,36.7,156
        C36.6,155.9,36.7,156,36.7,156z"/>
    <rect x="73.1" y="73.3" fill="#D9DADB" width="19" height="16"/>
    <rect x="45.1" y="73.3" fill="#D9DADB" width="19" height="16"/>
    <rect x="18.1" y="73.3" fill="#D9DADB" width="19" height="16"/>
    <rect x="73.1" y="49.3" fill="#D9DADB" width="19" height="16"/>
    <rect x="45.1" y="49.3" fill="#D9DADB" width="19" height="16"/>
    <path fill="#D9DADB" d="M37.1,65.3v-16h-8.1c0,0,0,0.1,0,0.1c-0.8,1.2-1.6,2.5-2.4,3.7c-0.2,0.3-0.4,0.7-0.6,1.1
        C25.5,55.1,25,56,24.5,57c-0.3,0.5-0.5,1-0.8,1.5c-0.4,0.8-0.8,1.6-1.2,2.5c-0.3,0.5-0.5,1.1-0.7,1.7c-0.4,0.8-0.7,1.4-1,2.2
        c-0.1,0.2-0.2,0.5-0.3,0.5H37.1z"/>
    <rect x="73.1" y="24.3" fill="#D9DADB" width="19" height="17"/>
    <path fill="#D9DADB" d="M45.1,41.3h19v-17h-9.3c-0.8,1-1.6,1.2-2.4,1.7c0,0-0.1,0.1-0.1,0.2c-1,0.7-1.9,1.4-2.9,2.1
        c-0.3,0.2-0.5,0.4-0.8,0.6c-0.9,0.7-1.9,1.4-2.8,2.2c0,0-0.3,0.1-0.4,0.1c0,0-0.3,0-0.3,0V41.3z"/>
    <path fill="#D9DADB" d="M73.1,17.3h19v-5.5c-2,0.1-2.8,0.3-4.1,0.5c-0.2,0-0.4,0-0.6,0.1c-1.3,0.2-2.5,0.4-3.8,0.7
        c-0.2,0-0.5,0.1-0.7,0.1c-1.2,0.3-2.4,0.5-3.6,0.8c-0.2,0.1-0.4,0.1-0.6,0.2c-1.2,0.3-2.4,0.7-3.6,1c-0.1,0-0.3,0.1-0.4,0.1
        c-0.5,0.2-0.5,0.3-1.5,0.5V17.3z"/>
    <rect x="164.1" y="73.3" fill="#D9DADB" width="19" height="16"/>
    <rect x="137.1" y="73.3" fill="#D9DADB" width="18" height="16"/>
    <rect x="109.1" y="73.3" fill="#D9DADB" width="19" height="16"/>
    <path fill="#D9DADB" d="M164.1,49.3v16h16.7c-0.1,0-0.2-0.3-0.3-0.5c-0.3-0.8-0.7-1.5-1-2.3c-0.2-0.6-0.5-1.1-0.7-1.6
        c-0.4-0.8-0.8-1.6-1.2-2.4c-0.3-0.5-0.5-1-0.8-1.5c-0.5-0.9-1-1.8-1.6-2.8c-0.2-0.4-0.4-0.7-0.6-1.1c-0.8-1.3-1.5-2.5-2.4-3.7
        c0,0,0-0.1,0-0.1H164.1z"/>
    <rect x="137.1" y="49.3" fill="#D9DADB" width="18" height="16"/>
    <rect x="109.1" y="49.3" fill="#D9DADB" width="19" height="16"/>
    <path fill="#D9DADB" d="M137.1,24.3v17h18V30.9c-1-0.7-1.7-1.4-2.6-2.1c-0.2-0.2-0.4-0.3-0.6-0.5c-0.9-0.7-1.8-1.3-2.8-2
        c-0.1-0.1-0.2-0.3-0.3-0.3c-0.8-0.5-1.6-0.7-2.4-1.7H137.1z"/>
    <rect x="109.1" y="24.3" fill="#D9DADB" width="19" height="17"/>
    <path fill="#D9DADB" d="M109.1,17.3h19v-1.6c-1-0.1-0.9-0.3-1.3-0.4c-0.2-0.1-0.5-0.1-0.7-0.2c-1.2-0.4-2.4-0.7-3.6-1
        c-0.2-0.1-0.4-0.1-0.7-0.2c-1.2-0.3-2.4-0.6-3.7-0.8c-0.2,0-0.4-0.1-0.5-0.1c-1.3-0.3-2.6-0.5-3.9-0.7c-0.1,0-0.1,0-0.2,0
        c-1.3-0.2-2.6-0.4-3.9-0.5c-0.1,0-0.3,0-0.4,0c-0.1,0-0.2,0-0.2,0V17.3z"/>
    <path fill="#D9DADB" d="M74.7,180.3c0.1,0,0.3,0.1,0.4,0.1c1.2,0.4,2.4,0.7,3.6,1c0.2,0.1,0.4,0.1,0.6,0.2c1.2,0.3,2.4,0.6,3.6,0.8
        c0.2,0,0.4,0.1,0.6,0.1c1.2,0.2,2.5,0.5,3.7,0.7c0.2,0,0.5,0,0.7,0.1c1.3,0.2,2.1,0.4,4.1,0.5v-6.5h-19v2.5
        C74.1,180,74.1,180.1,74.7,180.3z"/>
    <rect x="73.1" y="154.3" fill="#D9DADB" width="19" height="16"/>
    <path fill="#D9DADB" d="M45.4,164.5c0,0,0.2,0.1,0.2,0.1c0.9,0.8,2,1.5,2.9,2.3c0.2,0.1,0.4,0.3,0.5,0.4c1,0.7,2,1.4,2.9,2.1
        c0.2,0.1,0.4,0.3,0.6,0.4c0.3,0.2,0.6,0.6,0.9,0.6h10.6v-16h-19v10.2C45.1,164.5,45.4,164.5,45.4,164.5z"/>
    <rect x="73.1" y="129.3" fill="#D9DADB" width="19" height="16"/>
    <rect x="45.1" y="129.3" fill="#D9DADB" width="19" height="16"/>
    <path fill="#D9DADB" d="M37.1,145.3v-16h-17c0.1,0,0.3,0.6,0.4,1c0.3,0.8,0.6,1.5,1,2.3c0.3,0.6,0.5,1.1,0.8,1.7
        c0.4,0.8,0.7,1.5,1.1,2.3c0.3,0.6,0.6,1.1,0.9,1.7c0.4,0.8,0.8,1.5,1.3,2.3c0.3,0.5,0.6,1.1,0.9,1.6c0.5,0.8,0.9,1.4,1.4,2.2
        c0.2,0.4,0.5,1,0.7,1H37.1z"/>
    <rect x="73.1" y="106.3" fill="#D9DADB" width="19" height="16"/>
    <rect x="45.1" y="106.3" fill="#D9DADB" width="19" height="16"/>
    <rect x="18.1" y="106.3" fill="#D9DADB" width="19" height="16"/>
    <path fill="#D9DADB" d="M130.1,177.3h-19v6.3c1-0.1,1.7-0.2,2.4-0.3c0.1,0,0.2,0,0.2,0c1.3-0.2,2.6-0.4,3.9-0.7
        c0.2,0,0.4-0.1,0.6-0.1c1.2-0.3,2.4-0.5,3.6-0.8c0.2-0.1,0.5-0.1,0.7-0.2c1.2-0.3,2.4-0.6,3.5-1c0.2-0.1,0.4-0.1,0.6-0.2
        c1.1-0.4,2.4-0.7,3.4-1.2V177.3z"/>
    <path fill="#D9DADB" d="M157.1,154.3h-18v16h8.6c0.3,0,0.5-0.3,0.8-0.5c0.3-0.2,0.6-0.4,1-0.6c0.8-0.5,1.6-1.1,2.4-1.7
        c0.2-0.2,0.5-0.4,0.7-0.5c1-0.7,2-1.5,2.9-2.3c0.2-0.2,0.2-0.4,0.4-0.5c0.5-0.4,1.3-0.9,1.3-1.3V154.3z"/>
    <rect x="111.1" y="154.3" fill="#D9DADB" width="19" height="16"/>
    <path fill="#D9DADB" d="M166.1,129.3v16h6.6c0.2,0,0.5-0.7,0.7-1c0.5-0.8,1-1.5,1.4-2.2c0.3-0.5,0.6-1,0.9-1.5
        c0.4-0.8,0.8-1.5,1.3-2.3c0.3-0.6,0.6-1.1,0.9-1.7c0.4-0.8,0.8-1.5,1.1-2.3c0.3-0.6,0.5-1.2,0.8-1.7c0.3-0.8,0.7-1.5,1-2.3
        c0.1-0.3,0.3-1,0.4-1H166.1z"/>
    <rect x="139.1" y="129.3" fill="#D9DADB" width="18" height="16"/>
    <rect x="111.1" y="129.3" fill="#D9DADB" width="19" height="16"/>
    <path fill="#D9DADB" d="M185.1,106.3h-19v16h17.4c0.2-1,0.5-1.6,0.7-2.4c0-0.2,0.1-0.4,0.1-0.5c0.3-1.1,0.8-2.2,0.8-3.3V106.3z"/>
    <rect x="139.1" y="106.3" fill="#D9DADB" width="18" height="16"/>
    <rect x="111.1" y="106.3" fill="#D9DADB" width="19" height="16"/>
</svg>
