<svg xmlns="http://www.w3.org/2000/svg" xmlns:xlink="http://www.w3.org/1999/xlink" viewBox="0 0 456.3 250">
<symbol id="iPad">
	<path fill="#1A1818" d="M81,120.6v0.3c0.7,0,1.4,0.3,1.8,0.8c0.5,0.5,0.8,1.1,0.8,1.8c0,0.7-0.3,1.4-0.8,1.8
		c-0.5,0.5-1.1,0.8-1.8,0.8c-0.7,0-1.4-0.3-1.8-0.8c-0.5-0.5-0.8-1.1-0.8-1.8c0-0.7,0.3-1.4,0.8-1.8c0.5-0.5,1.1-0.8,1.8-0.8V120.6
		v-0.3c-1.7,0-3.2,1.4-3.2,3.2c0,1.7,1.4,3.2,3.2,3.2c1.7,0,3.2-1.4,3.2-3.2c0-1.7-1.4-3.2-3.2-3.2V120.6z"/>
	<path fill="#1A1818" d="M358.8,115.8v0.3c2,0,3.9,0.8,5.2,2.2c1.3,1.3,2.2,3.2,2.2,5.2c0,2-0.8,3.9-2.2,5.2
		c-1.3,1.3-3.2,2.2-5.2,2.2c-2,0-3.9-0.8-5.2-2.2c-1.3-1.3-2.2-3.2-2.2-5.2c0-2,0.8-3.9,2.2-5.2c1.3-1.3,3.2-2.2,5.2-2.2V115.8v-0.3
		c-4.4,0-7.9,3.6-7.9,7.9c0,4.4,3.6,7.9,7.9,7.9c4.4,0,7.9-3.6,7.9-7.9c0-4.4-3.6-7.9-7.9-7.9V115.8z"/>
	<polygon fill="#1A1818" points="343.5,216.1 343.5,215.8 94.5,215.8 94.5,30.2 343.3,30.2 343.3,216.1 343.5,216.1 343.5,215.8 
		343.5,216.1 343.8,216.1 343.8,29.6 93.9,29.6 93.9,216.4 343.8,216.4 343.8,216.1 	"/>
	<path fill="#1A1818" d="M374.6,222.6h-0.3c0,2.8-1.1,5.4-3,7.2c-1.9,1.9-4.4,3-7.2,3H73.8c-2.8,0-5.4-1.1-7.2-3
		c-1.9-1.9-3-4.4-3-7.2V23.4c0-2.8,1.1-5.4,3-7.2c1.9-1.9,4.4-3,7.2-3h290.3c2.8,0,5.4,1.1,7.2,3c1.9,1.9,3,4.4,3,7.2v199.3H374.6
		h0.3V23.4c0-5.9-4.9-10.8-10.8-10.8H73.8c-5.9,0-10.8,4.9-10.8,10.8v199.3c0,5.9,4.9,10.8,10.8,10.8h290.3
		c5.9,0,10.8-4.9,10.8-10.8H374.6z"/>
</symbol>
<symbol id="egg1">
	<path fill="#FFFFFF" d="M99.1,87.7c-4,0-7.6,2.1-10.2,5.6c-2.6,3.5-4.3,8.3-4.3,13.6c0,5.3,1.7,10.2,4.3,13.6
		c2.6,3.5,6.3,5.6,10.2,5.6c4,0,7.6-2.1,10.2-5.6c2.6-3.5,4.3-8.3,4.3-13.6c0-5.3-1.7-10.2-4.3-13.6
		C106.7,89.8,103.1,87.7,99.1,87.7z"/>
	<path fill="#DDDDDD" d="M110.2,92.7c-2.8-3.7-6.7-6-11-6c-4.3,0-8.2,2.3-11,6c-2.8,3.7-4.5,8.7-4.5,14.2c0,5.5,1.7,10.6,4.5,14.2
		c2.8,3.7,6.7,6,11,6c4.3,0,8.2-2.3,11-6c2.8-3.7,4.5-8.7,4.5-14.2C114.6,101.4,112.9,96.4,110.2,92.7z M109.4,120.6
		c-2.6,3.5-6.3,5.6-10.2,5.6c-4,0-7.6-2.1-10.2-5.6c-2.6-3.5-4.3-8.3-4.3-13.6c0-5.3,1.7-10.2,4.3-13.6c2.6-3.5,6.3-5.6,10.2-5.6
		c4,0,7.6,2.1,10.2,5.6c2.6,3.5,4.3,8.3,4.3,13.6C113.6,112.3,112,117.1,109.4,120.6z"/>
</symbol>
<symbol id="egg2">
	<path fill="#FFFFFF" d="M122.3,59.1c-4,0-7.6,2.1-10.2,5.6c-2.6,3.5-4.3,8.3-4.3,13.6c0,5.3,1.7,10.2,4.3,13.6
		c2.6,3.5,6.3,5.6,10.2,5.6c4,0,7.6-2.1,10.2-5.6c2.6-3.5,4.3-8.3,4.3-13.6c0-5.3-1.7-10.2-4.3-13.6
		C129.9,61.2,126.3,59.1,122.3,59.1z"/>
	<path fill="#DDDDDD" d="M133.4,64.1c-2.8-3.7-6.7-6-11-6c-4.3,0-8.2,2.3-11,6c-2.8,3.7-4.5,8.7-4.5,14.2c0,5.5,1.7,10.6,4.5,14.2
		c2.8,3.7,6.7,6,11,6c4.3,0,8.2-2.3,11-6c2.8-3.7,4.5-8.7,4.5-14.2C137.8,72.8,136.1,67.7,133.4,64.1z M132.6,91.9
		c-2.6,3.5-6.3,5.6-10.2,5.6c-4,0-7.6-2.1-10.2-5.6c-2.6-3.5-4.3-8.3-4.3-13.6c0-5.3,1.7-10.2,4.3-13.6c2.6-3.5,6.3-5.6,10.2-5.6
		c4,0,7.6,2.1,10.2,5.6c2.6,3.5,4.3,8.3,4.3,13.6C136.8,83.6,135.2,88.5,132.6,91.9z"/>
</symbol>
<symbol id="water">
	<path fill="#FFFFFF" d="M199.8,13.6c-6-6-14.4-9.8-23.6-9.8c-9.2,0-17.5,3.7-23.6,9.8c-6,6-9.8,14.4-9.8,23.6
		c0,9.2,3.7,17.5,9.8,23.6c6,6,14.4,9.8,23.6,9.8c9.2,0,17.5-3.7,23.6-9.8c6-6,9.8-14.4,9.8-23.6C209.5,28,205.8,19.6,199.8,13.6z
		 M176.2,65.1c-15.4,0-27.9-12.5-27.9-27.9s12.5-27.9,27.9-27.9s27.9,12.5,27.9,27.9S191.6,65.1,176.2,65.1z"/>
	<path fill="#DDDDDD" d="M176.2,2.8c-19,0-34.3,15.4-34.3,34.3c0,19,15.4,34.3,34.3,34.3c19,0,34.3-15.4,34.3-34.3
		C210.5,18.2,195.2,2.8,176.2,2.8z M176.2,70.5c-9.2,0-17.5-3.7-23.6-9.8c-6-6-9.8-14.4-9.8-23.6c0-9.2,3.7-17.5,9.8-23.6
		c6-6,14.4-9.8,23.6-9.8c9.2,0,17.5,3.7,23.6,9.8c6,6,9.8,14.4,9.8,23.6c0,9.2-3.7,17.5-9.8,23.6C193.7,66.8,185.4,70.5,176.2,70.5z
		"/>
	<circle fill="#EEEEEE" cx="176.2" cy="37.2" r="27.9"/>
</symbol>
<symbol id="butter"><path fill="#EEEEEE" d="M346.8,70.5h-52.3c-6.6,0-12,5.4-12,12v21c0,6.6,5.4,12,12,12h52.3c6.6,0,12-5.4,12-12v-21
	C358.8,75.9,353.4,70.5,346.8,70.5z"/>
</symbol>
<symbol id="vanilla">
	<path fill="#FFFFFF" d="M275.3,34.1c-4.2-4.2-10-6.8-16.4-6.8c-6.4,0-12.2,2.6-16.4,6.8c-4.2,4.2-6.8,10-6.8,16.4
		c0,6.4,2.6,12.2,6.8,16.4c4.2,4.2,10,6.8,16.4,6.8c6.4,0,12.2-2.6,16.4-6.8c4.2-4.2,6.8-10,6.8-16.4
		C282.1,44.1,279.5,38.3,275.3,34.1z M258.9,70c-10.8,0-19.5-8.7-19.5-19.5c0-10.8,8.7-19.5,19.5-19.5s19.5,8.7,19.5,19.5
		C278.4,61.3,269.6,70,258.9,70z"/>
	<path fill="#DDDDDD" d="M258.9,26.3c-13.4,0-24.2,10.8-24.2,24.2c0,13.4,10.8,24.2,24.2,24.2c13.4,0,24.2-10.8,24.2-24.2
		C283.1,37.1,272.2,26.3,258.9,26.3z M258.9,73.7c-6.4,0-12.2-2.6-16.4-6.8c-4.2-4.2-6.8-10-6.8-16.4c0-6.4,2.6-12.2,6.8-16.4
		c4.2-4.2,10-6.8,16.4-6.8c6.4,0,12.2,2.6,16.4,6.8c4.2,4.2,6.8,10,6.8,16.4c0,6.4-2.6,12.2-6.8,16.4
		C271.1,71.1,265.3,73.7,258.9,73.7z"/>
	<circle fill="#DFDFDF" cx="258.9" cy="50.5" r="19.5"/>
</symbol>
<symbol id="whisk">
	<path fill="none" d="M333.4,156c-8.9-29.7-16.5-49.5-22.7-62.7c-4.5-9.6-8.3-15.8-11.4-19.6c-2.6-3.3-4.5-4.9-5.9-5.7
		c-0.4,0.2-0.8,0.3-1.1,0.5c-0.4,0.2-0.9,0.4-1.3,0.7c-0.1,1-0.2,2.3,0,4.1c0.5,4.7,2.5,12.6,8.6,25.4
		C305.7,111.8,316.2,130.2,333.4,156z"/>
	<path fill="none" d="M297.6,99.4c-4.6-9.7-6.9-16.7-8.1-21.7c-0.7-3.1-0.9-5.4-0.8-7.2c-4.1,2.9-7.1,6.9-8.7,11.4
		c-2.1,5.8-1.9,12.3,0.9,18.3c0.1,0.1,0.2,0.3,0.3,0.5l0,0l0,0c0,0.1,0.1,0.2,0.2,0.4c0.3,0.7,1.1,2.1,2.8,4.5
		c1.7,2.3,4.3,5.6,8.3,10.2c7.1,8.1,18.6,20.3,37.1,38.3C313.5,129.9,303.6,112.3,297.6,99.4z"/>
	<path fill="none" d="M324.1,79.8c-2.8-6-7.8-10.2-13.5-12.3c-4.6-1.7-9.7-1.9-14.6-0.5c0.7,0.5,1.4,1.1,2.2,1.9
		c3.6,3.6,8.4,10.4,14.5,23.4c6.1,13,13.5,32.1,22,60.4c-3.3-41-6.5-59.1-8.5-66.9c-0.7-2.8-1.3-4.3-1.6-5c-0.1-0.2-0.1-0.3-0.2-0.4
		l0,0l0,0C324.2,80.1,324.1,80,324.1,79.8z"/>
	<path fill="#D1D3D4" d="M326,78.9c-5.8-12.3-20-18-32.5-13.4c-1.1-0.5-2-0.6-2.5-0.6l-0.2,0c-0.1,0-0.2,0-0.3,0l-0.1,0.1
		c0,0-0.1,0.1-0.2,0.2l-0.1,0.1c-0.3,0.4-0.8,1.1-1.1,2.3c-11.4,6.8-15.9,21.2-10.2,33.4c0.1,0.2,0.2,0.4,0.3,0.5
		c0.1,0.1,0.1,0.3,0.2,0.4c0.4,0.9,1.3,2.4,3,4.8c5.2,7.2,18.6,22.7,52.7,55.6l-1.9,0.9l16.7,35.5l6.3-3l-16.7-35.5l-1.9,0.9
		c-2.4-31.5-4.7-50.9-6.7-63c-1-6-1.9-10.2-2.6-13.1c-0.7-2.9-1.3-4.5-1.8-5.4c-0.1-0.2-0.2-0.3-0.2-0.4
		C326.2,79.3,326.1,79.1,326,78.9z M291,69.1c0.4-0.2,0.9-0.5,1.3-0.7c0.4-0.2,0.8-0.3,1.1-0.5c1.4,0.8,3.4,2.5,5.9,5.7
		c3,3.9,6.8,10,11.4,19.6c6.2,13.2,13.8,33.1,22.7,62.7c-17.2-25.7-27.7-44.2-33.9-57.5c-6.1-12.8-8.1-20.7-8.6-25.4
		C290.8,71.3,290.8,70,291,69.1z M284.1,105.6c-1.7-2.3-2.5-3.7-2.8-4.5c-0.1-0.2-0.1-0.3-0.2-0.4l0,0l0,0c-0.1-0.2-0.2-0.4-0.3-0.5
		c-2.8-6-2.9-12.5-0.9-18.3c1.6-4.5,4.6-8.5,8.7-11.4c-0.1,1.8,0.2,4.1,0.8,7.2c1.1,5,3.5,12,8.1,21.7c6,12.8,16,30.5,32,54.7
		c-18.5-18-30-30.2-37.1-38.3C288.4,111.3,285.8,108,284.1,105.6z M324.3,80.4c0.1,0.1,0.1,0.2,0.2,0.4c0.3,0.7,0.9,2.2,1.6,5
		c2,7.8,5.2,25.9,8.5,66.9c-8.6-28.3-15.9-47.4-22-60.4c-6.1-13-11-19.8-14.5-23.4c-0.8-0.8-1.5-1.4-2.2-1.9
		c4.9-1.4,10-1.1,14.6,0.5c5.8,2.1,10.7,6.3,13.5,12.3C324.1,80,324.2,80.1,324.3,80.4L324.3,80.4L324.3,80.4z"/>
</symbol>
<symbol id="waffle-iron"><path fill="#AAAAAA" d="M280.6,116.8c0-35.6-28.9-64.5-64.5-64.5s-64.5,28.9-64.5,64.5c0,32.2,23.6,58.9,54.5,63.7v56.3
	c0,5.5,4.5,10,10,10s10-4.5,10-10v-56.3C257,175.7,280.6,149,280.6,116.8z"/></symbol>
<symbol id="pitcher">
	<path fill="#FFFFFF" d="M367.5,65.6c0-1.1-0.3-2.3-0.9-3.3l-1-1.6c-1.2-2.1-3.5-3.3-5.8-3.3c-1.1,0-2.3,0.3-3.3,0.9l-5.3,3.1
		c3.7,3.5,6.6,7.8,8.5,12.7l4.5-2.7C366.3,70.2,367.5,67.9,367.5,65.6z"/>
	<path fill="#DDDDDD" d="M367.5,61.8l-1-1.6c-1.4-2.4-4-3.8-6.6-3.8c-1.3,0-2.6,0.3-3.8,1l-5.6,3.3c-6.1-5.4-14.1-8.7-22.8-8.7
		c-19,0-34.3,15.4-34.3,34.3v0l0,0c-0.7,0.8-2.4,2.9-4,5.4c-1.6,2.7-3.1,6-3.1,9.3c0,2.7,1.1,5.4,4.1,7.4c2.9,2,7.6,3.3,14.7,3.6
		c6,5.3,14,8.5,22.6,8.5c19,0,34.3-15.4,34.3-34.3c0-4-0.7-7.8-1.9-11.3l4.7-2.7c2.4-1.4,3.8-4,3.8-6.6
		C368.5,64.3,368.2,63,367.5,61.8z M327.6,119.6c-8.5,0-16.2-3.2-22.1-8.4l-0.1-0.1l-0.2,0c-7.1-0.3-11.7-1.6-14.4-3.5
		c-2.7-1.8-3.6-4.1-3.6-6.6c0-2.9,1.4-6.2,3-8.8c1.6-2.6,3.3-4.7,4-5.4l0.1-0.1l0-0.4c0-9.2,3.7-17.5,9.8-23.6
		c6-6,14.4-9.8,23.6-9.8c9.2,0,17.5,3.7,23.6,9.8c6,6,9.8,14.4,9.8,23.6c0,9.2-3.7,17.5-9.8,23.6
		C345.1,115.9,336.8,119.6,327.6,119.6z M351.2,61.4l5.3-3.1c1.1-0.6,2.2-0.9,3.3-0.9c2.3,0,4.5,1.2,5.8,3.3l1,1.6
		c0.6,1,0.9,2.2,0.9,3.3c0,2.3-1.2,4.5-3.3,5.8l-4.5,2.7C357.8,69.2,354.9,64.9,351.2,61.4z"/>
	<path fill="#FFFFFF" d="M351.2,62.7c-6-6-14.4-9.8-23.6-9.8c-9.2,0-17.5,3.7-23.6,9.8c-6,6-9.8,14.4-9.8,23.6l0,0.4l-0.1,0.1
		c-0.6,0.7-2.4,2.8-4,5.4c-1.6,2.6-3,5.8-3,8.8c0,2.5,0.9,4.8,3.6,6.6c2.7,1.8,7.2,3.2,14.4,3.5l0.2,0l0.1,0.1
		c5.9,5.2,13.6,8.4,22.1,8.4c9.2,0,17.5-3.7,23.6-9.8c6-6,9.8-14.4,9.8-23.6C360.9,77.1,357.2,68.8,351.2,62.7z M327.9,113.4
		c-6.9,0-13.2-2.6-18-6.8c-25.2-1.1-11.1-18-9.1-20.1l0-0.2c0-15,12.1-27.1,27.1-27.1c15,0,27.1,12.1,27.1,27.1
		C355,101.3,342.9,113.4,327.9,113.4z"/>
	<path fill="#EEEEEE" d="M327.9,59.2c-15,0-27.1,12.1-27.1,27.1l0,0.2c-1.9,2.2-16.1,19.1,9.1,20.1c4.8,4.2,11.1,6.8,18,6.8
		c15,0,27.1-12.1,27.1-27.1C355,71.3,342.9,59.2,327.9,59.2z"/>
</symbol>
<symbol id="bowl">
	<path fill="#D1D3D4" d="M215,78.3c-33.9,0-61.3,27.5-61.3,61.3c0,33.9,27.5,61.3,61.3,61.3s61.3-27.5,61.3-61.3
		C276.4,105.8,248.9,78.3,215,78.3z M215,189.7c-29.3,0-53-23.7-53-53s23.7-53,53-53c29.3,0,53,23.7,53,53S244.3,189.7,215,189.7z"
		/>
	<circle fill="#EEEEEF" cx="215" cy="136.6" r="53"/>
</symbol>
<symbol id="waffle">
	<path fill="#F4F4F4" d="M214.6,170.6v-53.5h-53.5c0.1,9.3,2.6,18,6.9,25.6C177.1,159.2,194.6,170.3,214.6,170.6z M199.6,121.3h10.9
		v9.5h-10.9V121.3z M199.6,134.8h10.9v9.5h-10.9V134.8z M199.6,149.3h10.9v9.5h-10.9V149.3z M199.6,164.4v-1.2h10.9v3.6v0
		c-0.1,0-0.2,0-0.3,0c-0.8-0.1-1.6-0.2-2.4-0.3c-0.3,0-0.6-0.1-0.9-0.2c-0.6-0.1-1.2-0.2-1.7-0.3c-0.3-0.1-0.7-0.2-1-0.2
		c-0.5-0.1-1-0.2-1.6-0.4c-0.4-0.1-0.7-0.2-1.1-0.3c-0.5-0.1-1-0.3-1.5-0.4C200,164.5,199.8,164.4,199.6,164.4L199.6,164.4z
		 M183.6,121.3h10.9v9.5h-10.9V121.3z M183.6,134.8h10.9v9.5h-10.9V134.8z M183.6,155.4v-6.1h10.9v9.5h-6.2h0
		c-0.1-0.1-0.2-0.1-0.3-0.2c-0.5-0.3-1-0.7-1.5-1.1c-0.2-0.2-0.5-0.3-0.7-0.5C185,156.6,184.3,156,183.6,155.4
		C183.6,155.5,183.6,155.4,183.6,155.4L183.6,155.4z M167.5,130.8v-9.5h10.9v9.5H167.5z M173.6,144.4c-0.1-0.2-0.3-0.4-0.4-0.7
		c-0.3-0.4-0.6-0.9-0.8-1.3c-0.2-0.3-0.4-0.6-0.5-0.9c-0.2-0.4-0.5-0.9-0.7-1.3c-0.2-0.3-0.3-0.6-0.5-1c-0.2-0.4-0.4-0.9-0.7-1.3
		c-0.2-0.3-0.3-0.7-0.5-1c-0.2-0.5-0.4-0.9-0.6-1.4c-0.1-0.2-0.2-0.4-0.2-0.6h0h9.7v9.5H173.6L173.6,144.4z M177.4,149.3h1v1.1v0
		c0,0,0,0,0,0c0,0,0,0,0,0C178,150.1,177.7,149.7,177.4,149.3L177.4,149.3z"/>
	<path fill="#F4F4F4" d="M214.6,62c-29.4,0.4-53.1,24.1-53.5,53.5h53.5V62z M178.4,111.5h-10.9V102h10.9V111.5z M178.4,97.7h-9.5h0
		c0.1-0.1,0.1-0.3,0.2-0.4c0.2-0.5,0.4-0.9,0.6-1.4c0.1-0.3,0.3-0.6,0.4-1c0.2-0.5,0.5-1,0.7-1.4c0.1-0.3,0.3-0.6,0.4-0.9
		c0.3-0.5,0.6-1.1,0.9-1.6c0.1-0.2,0.2-0.4,0.4-0.6c0.4-0.7,0.9-1.5,1.4-2.2c0,0,0,0,0,0h0h4.5V97.7z M178.4,82.5v0.7h-0.6h0
		C177.9,83,178.1,82.8,178.4,82.5C178.3,82.6,178.3,82.6,178.4,82.5C178.3,82.6,178.3,82.5,178.4,82.5L178.4,82.5z M194.4,111.5
		h-10.9V102h10.9V111.5z M194.4,97.7h-10.9v-9.5h10.9V97.7z M194.4,83.2h-10.9v-5.6v0c0,0,0,0,0,0c0.8-0.6,1.5-1.2,2.3-1.8
		c0.2-0.2,0.5-0.3,0.7-0.5c0.6-0.4,1.2-0.8,1.9-1.3c0.1-0.1,0.3-0.2,0.4-0.3h0h5.5V83.2z M210.5,111.5h-10.9V102h10.9V111.5z
		 M210.5,97.7h-10.9v-9.5h10.9V97.7z M210.5,83.2h-10.9v-9.5h10.9V83.2z M210.5,66.3v3.4h-10.9v-1v0c0.2-0.1,0.3-0.1,0.5-0.1
		c0.5-0.2,1-0.3,1.5-0.4c0.4-0.1,0.7-0.2,1.1-0.3c0.5-0.1,1-0.3,1.5-0.4c0.3-0.1,0.7-0.2,1-0.2c0.6-0.1,1.1-0.2,1.7-0.3
		c0.3-0.1,0.6-0.1,0.9-0.2c0.8-0.1,1.6-0.2,2.3-0.3C210.3,66.3,210.4,66.3,210.5,66.3L210.5,66.3z"/>
	<path fill="#F4F4F4" d="M216.3,170.6c29.3-0.5,53-24.2,53.4-53.5h-53.4V170.6z M254.2,121.3h10.9v5.9v0c-0.1,0.6-0.3,1.3-0.4,1.9
		c0,0.1-0.1,0.2-0.1,0.3c-0.1,0.5-0.2,0.9-0.4,1.4h0h-9.9V121.3z M254.2,134.8h8.6h0c-0.1,0.2-0.2,0.4-0.2,0.6
		c-0.2,0.5-0.4,0.9-0.6,1.4c-0.1,0.3-0.3,0.7-0.5,1c-0.2,0.5-0.4,0.9-0.7,1.3c-0.2,0.3-0.3,0.7-0.5,1c-0.2,0.4-0.5,0.9-0.7,1.3
		c-0.2,0.3-0.3,0.6-0.5,0.9c-0.3,0.4-0.5,0.9-0.8,1.3c-0.1,0.2-0.3,0.4-0.4,0.7h0h-3.6V134.8z M238.1,121.3H249v9.5h-10.9V121.3z
		 M238.1,134.8H249v9.5h-10.9V134.8z M238.1,149.3H249v5.1v0c-0.1,0.1-0.2,0.2-0.4,0.3c-0.7,0.6-1.4,1.2-2.2,1.8
		c-0.1,0.1-0.3,0.2-0.4,0.3c-0.8,0.6-1.7,1.2-2.6,1.8c-0.1,0.1-0.2,0.1-0.3,0.2h0h-5.1V149.3z M222,121.3h10.9v9.5H222V121.3z
		 M222,134.8h10.9v9.5H222V134.8z M222,149.3h10.9v9.5H222V149.3z M222,166.6v-3.4h10.9v0.8v0c-0.2,0.1-0.4,0.1-0.6,0.2
		c-0.6,0.2-1.2,0.4-1.9,0.6c-0.3,0.1-0.6,0.2-0.9,0.3c-0.5,0.2-1.1,0.3-1.6,0.4c-0.3,0.1-0.7,0.2-1,0.2c-0.5,0.1-1,0.2-1.6,0.3
		c-0.4,0.1-0.7,0.1-1.1,0.2c-0.5,0.1-1,0.2-1.6,0.2C222.4,166.5,222.3,166.6,222,166.6L222,166.6z"/>
	<path fill="#F4F4F4" d="M269.8,115.4c-0.1-8.2-2.1-16-5.4-22.9c-8.7-17.8-26.9-30.2-48-30.6v53.5H269.8z M252.8,82.3L252.8,82.3
		c0.1,0.1,0.1,0.1,0.2,0.2c0.1,0.1,0.1,0.1,0.2,0.2c0.2,0.2,0.3,0.4,0.5,0.5h0h-0.8V82.3z M252.8,88.2h4.7h0c0,0,0,0,0,0
		c0.5,0.7,0.9,1.4,1.4,2.2c0.1,0.2,0.2,0.4,0.4,0.6c0.3,0.5,0.6,1.1,0.9,1.6c0.2,0.3,0.3,0.6,0.4,0.9c0.2,0.5,0.5,1,0.7,1.4
		c0.2,0.3,0.3,0.6,0.4,1c0.2,0.5,0.4,0.9,0.6,1.4c0.1,0.1,0.1,0.3,0.2,0.4h0h-9.7V88.2z M252.8,102h10.9v9.5h-10.9V102z M236.8,73.7
		h5.7h0c0.2,0.1,0.3,0.2,0.5,0.3c0.6,0.4,1.1,0.8,1.7,1.1c0.3,0.2,0.5,0.4,0.8,0.5c0.6,0.5,1.2,0.9,1.8,1.4c0.1,0.1,0.2,0.2,0.3,0.3
		v0v5.8h-10.9V73.7z M236.8,88.2h10.9v9.5h-10.9V88.2z M236.8,102h10.9v9.5h-10.9V102z M220.7,66.3L220.7,66.3
		C220.7,66.3,220.8,66.3,220.7,66.3c1,0.1,1.9,0.2,2.8,0.3c0.2,0,0.3,0.1,0.5,0.1c0.7,0.1,1.4,0.2,2.1,0.4c0.3,0.1,0.6,0.1,0.9,0.2
		c0.6,0.1,1.1,0.3,1.7,0.4c0.3,0.1,0.7,0.2,1,0.3c0.5,0.1,1,0.3,1.5,0.5c0.1,0,0.3,0.1,0.4,0.1v0v1.1h-10.9V66.3z M220.7,73.7h10.9
		v9.5h-10.9V73.7z M220.7,88.2h10.9v9.5h-10.9V88.2z M220.7,102h10.9v9.5h-10.9V102z"/>
	<path fill="#EAEAEA" d="M183.6,155.4L183.6,155.4C183.6,155.4,183.6,155.5,183.6,155.4C183.6,155.5,183.6,155.4,183.6,155.4z"/>
	<path fill="#EAEAEA" d="M173.9,88.2C173.9,88.2,173.9,88.2,173.9,88.2C173.9,88.2,173.9,88.2,173.9,88.2L173.9,88.2z"/>
	<path fill="#EAEAEA" d="M242.5,73.7L242.5,73.7c0.1,0.1,0.3,0.2,0.5,0.3C242.8,73.9,242.7,73.8,242.5,73.7z"/>
	<path fill="#EAEAEA" d="M265.1,127.2L265.1,127.2c-0.1,0.6-0.3,1.2-0.4,1.9C264.8,128.5,264.9,127.8,265.1,127.2z"/>
	<path fill="#EAEAEA" d="M188.2,158.8L188.2,158.8c-0.1-0.1-0.2-0.1-0.3-0.2C188,158.7,188.1,158.8,188.2,158.8z"/>
	<polygon fill="#EAEAEA" points="178.4,150.5 178.4,150.5 178.3,150.5 	"/>
	<path fill="#EAEAEA" d="M177.4,149.3L177.4,149.3c0.3,0.4,0.6,0.7,0.9,1.1C178,150.1,177.7,149.7,177.4,149.3z"/>
	<path fill="#EAEAEA" d="M168.8,97.7L168.8,97.7c0.1-0.1,0.1-0.3,0.2-0.4C169,97.5,168.9,97.6,168.8,97.7z"/>
	<path fill="#EAEAEA" d="M168.7,134.8c0.1,0.2,0.2,0.4,0.2,0.6C168.8,135.2,168.7,135,168.7,134.8L168.7,134.8z"/>
	<path fill="#EAEAEA" d="M173.6,144.4L173.6,144.4c-0.1-0.2-0.3-0.4-0.4-0.7C173.3,143.9,173.4,144.1,173.6,144.4z"/>
	<path fill="#EAEAEA" d="M188.9,73.7c-0.1,0.1-0.3,0.2-0.4,0.3C188.6,73.9,188.8,73.8,188.9,73.7L188.9,73.7z"/>
	<path fill="#EAEAEA" d="M210.5,66.3L210.5,66.3c-0.1,0-0.2,0-0.3,0C210.3,66.3,210.4,66.3,210.5,66.3z"/>
	<path fill="#EAEAEA" d="M199.6,68.6L199.6,68.6c0.2,0,0.3-0.1,0.5-0.1C200,68.5,199.8,68.6,199.6,68.6z"/>
	<path fill="#EAEAEA" d="M177.7,83.2L177.7,83.2c0.2-0.2,0.4-0.4,0.6-0.7C178.1,82.8,177.9,83,177.7,83.2z"/>
	<path fill="#EAEAEA" d="M199.6,164.4L199.6,164.4c0.2,0.1,0.3,0.1,0.5,0.2C200,164.5,199.8,164.4,199.6,164.4z"/>
	<path fill="#EAEAEA" d="M210.5,166.7L210.5,166.7c-0.1,0-0.2,0-0.3,0C210.3,166.7,210.4,166.7,210.5,166.7z"/>
	<polygon fill="#EAEAEA" points="178.4,82.5 178.4,82.5 178.3,82.6 	"/>
	<path fill="#EAEAEA" d="M183.6,77.6L183.6,77.6C183.6,77.6,183.6,77.6,183.6,77.6C183.6,77.6,183.6,77.6,183.6,77.6z"/>
	<path fill="#EAEAEA" d="M220.7,66.3L220.7,66.3C220.7,66.3,220.8,66.3,220.7,66.3C220.8,66.3,220.7,66.3,220.7,66.3z"/>
	<path fill="#EAEAEA" d="M253.7,83.2c-0.2-0.2-0.3-0.4-0.5-0.5C253.4,82.9,253.5,83.1,253.7,83.2L253.7,83.2z"/>
	<path fill="#EAEAEA" d="M231.6,68.6c-0.1,0-0.3-0.1-0.4-0.1C231.3,68.5,231.4,68.5,231.6,68.6L231.6,68.6z"/>
	<path fill="#EAEAEA" d="M257.5,88.2L257.5,88.2C257.5,88.2,257.5,88.2,257.5,88.2C257.5,88.2,257.5,88.2,257.5,88.2z"/>
	<path fill="#EAEAEA" d="M243.2,158.8c0.1-0.1,0.2-0.1,0.3-0.2C243.4,158.7,243.3,158.8,243.2,158.8L243.2,158.8z"/>
	<path fill="#EAEAEA" d="M247.6,77.4c-0.1-0.1-0.2-0.2-0.3-0.3C247.4,77.2,247.5,77.3,247.6,77.4L247.6,77.4z"/>
	<path fill="#EAEAEA" d="M232.9,164L232.9,164c-0.2,0.1-0.4,0.1-0.6,0.2C232.5,164.1,232.7,164.1,232.9,164z"/>
	<path fill="#EAEAEA" d="M222,166.6L222,166.6c0.2,0,0.4,0,0.6-0.1C222.4,166.5,222.2,166.6,222,166.6z"/>
	<path fill="#EAEAEA" d="M262.6,97.7c-0.1-0.1-0.1-0.3-0.2-0.4C262.5,97.5,262.5,97.6,262.6,97.7L262.6,97.7z"/>
	<path fill="#EAEAEA" d="M257.8,144.4c0.1-0.2,0.3-0.4,0.4-0.7C258.1,143.9,258,144.1,257.8,144.4L257.8,144.4z"/>
	<path fill="#EAEAEA" d="M262.8,134.8L262.8,134.8c-0.1,0.2-0.2,0.4-0.2,0.6C262.6,135.2,262.7,135,262.8,134.8z"/>
	<path fill="#EAEAEA" d="M249,154.5L249,154.5c-0.1,0.1-0.2,0.2-0.4,0.3C248.8,154.7,248.9,154.6,249,154.5z"/>
	<path fill="#EAEAEA" d="M264.2,130.8c0.1-0.5,0.3-0.9,0.4-1.4C264.4,129.8,264.3,130.3,264.2,130.8L264.2,130.8z"/>
	<path fill="#EAEAEA" d="M252.8,82.3L252.8,82.3c0.1,0.1,0.1,0.1,0.2,0.2C253,82.4,252.9,82.4,252.8,82.3z"/>
	<path fill="#EAEAEA" d="M264.3,92.5c3.4,6.9,5.3,14.7,5.4,22.9h-53.4V62v0h-1.7v0v53.5h-53.5h0v1.7h0h53.5v53.5
		c-20.1-0.3-37.5-11.5-46.7-27.9c8.8,18.1,27.4,30.6,48.9,30.6c30,0,54.3-24.3,54.3-54.3C271.2,109.4,268.7,100.4,264.3,92.5z
		 M216.3,170.6v-53.5h53.4C269.3,146.5,245.6,170.1,216.3,170.6z"/>
	<path fill="#EAEAEA" d="M178.3,82.6c-0.2,0.2-0.4,0.4-0.6,0.7h0.6L178.3,82.6C178.3,82.5,178.3,82.6,178.3,82.6
		C178.3,82.6,178.3,82.6,178.3,82.6z"/>
	<path fill="#EAEAEA" d="M253.2,82.7c-0.1-0.1-0.1-0.1-0.2-0.2c-0.1-0.1-0.1-0.1-0.2-0.2v0.9h0.8C253.5,83.1,253.4,82.9,253.2,82.7z
		"/>
	<path fill="#EAEAEA" d="M178.3,150.5C178.3,150.5,178.3,150.5,178.3,150.5l0-1.1h-1C177.7,149.7,178,150.1,178.3,150.5
		C178.3,150.4,178.3,150.5,178.3,150.5z"/>
	<rect x="199.6" y="102" fill="#EAEAEA" width="10.9" height="9.5"/>
	<rect x="183.6" y="102" fill="#EAEAEA" width="10.9" height="9.5"/>
	<rect x="167.5" y="102" fill="#EAEAEA" width="10.9" height="9.5"/>
	<rect x="199.6" y="88.2" fill="#EAEAEA" width="10.9" height="9.5"/>
	<rect x="183.6" y="88.2" fill="#EAEAEA" width="10.9" height="9.5"/>
	<path fill="#EAEAEA" d="M173.9,88.2c-0.5,0.7-0.9,1.4-1.4,2.2c-0.1,0.2-0.2,0.4-0.4,0.6c-0.3,0.5-0.6,1.1-0.9,1.6
		c-0.2,0.3-0.3,0.6-0.4,0.9c-0.2,0.5-0.5,1-0.7,1.4c-0.2,0.3-0.3,0.6-0.4,1c-0.2,0.5-0.4,0.9-0.6,1.4c-0.1,0.1-0.1,0.3-0.2,0.4h9.5
		v-9.5L173.9,88.2C173.9,88.2,173.9,88.2,173.9,88.2z"/>
	<rect x="199.6" y="73.7" fill="#EAEAEA" width="10.9" height="9.5"/>
	<path fill="#EAEAEA" d="M188.5,74c-0.6,0.4-1.3,0.8-1.9,1.3c-0.2,0.2-0.5,0.3-0.7,0.5c-0.8,0.6-1.6,1.2-2.3,1.8c0,0,0,0,0,0v5.6
		h10.9v-9.5h-5.5C188.8,73.8,188.6,73.9,188.5,74z"/>
	<path fill="#EAEAEA" d="M207.9,66.6c-0.3,0-0.6,0.1-0.9,0.2c-0.6,0.1-1.1,0.2-1.7,0.3c-0.3,0.1-0.7,0.2-1,0.2
		c-0.5,0.1-1,0.2-1.5,0.4c-0.4,0.1-0.7,0.2-1.1,0.3c-0.5,0.1-1,0.3-1.5,0.4c-0.2,0.1-0.3,0.1-0.5,0.2v1h10.9v-3.4
		c-0.1,0-0.2,0-0.3,0C209.4,66.4,208.6,66.5,207.9,66.6z"/>
	<rect x="252.8" y="102" fill="#EAEAEA" width="10.9" height="9.5"/>
	<rect x="236.8" y="102" fill="#EAEAEA" width="10.9" height="9.5"/>
	<rect x="220.7" y="102" fill="#EAEAEA" width="10.9" height="9.5"/>
	<path fill="#EAEAEA" d="M262.4,97.3c-0.2-0.5-0.4-0.9-0.6-1.4c-0.1-0.3-0.3-0.6-0.4-1c-0.2-0.5-0.5-1-0.7-1.4
		c-0.1-0.3-0.3-0.6-0.4-0.9c-0.3-0.5-0.6-1.1-0.9-1.6c-0.1-0.2-0.2-0.4-0.4-0.6c-0.4-0.7-0.9-1.5-1.4-2.2c0,0,0,0,0,0h-4.7v9.5h9.7
		C262.5,97.6,262.5,97.5,262.4,97.3z"/>
	<rect x="236.8" y="88.2" fill="#EAEAEA" width="10.9" height="9.5"/>
	<rect x="220.7" y="88.2" fill="#EAEAEA" width="10.9" height="9.5"/>
	<path fill="#EAEAEA" d="M247.6,77.4c-0.1-0.1-0.2-0.2-0.3-0.3c-0.6-0.5-1.2-1-1.8-1.4c-0.2-0.2-0.5-0.4-0.8-0.5
		c-0.6-0.4-1.1-0.8-1.7-1.1c-0.2-0.1-0.3-0.2-0.5-0.3h-5.7v9.5h10.9V77.4z"/>
	<rect x="220.7" y="73.7" fill="#EAEAEA" width="10.9" height="9.5"/>
	<path fill="#EAEAEA" d="M231.6,68.6c-0.1,0-0.3-0.1-0.4-0.1c-0.5-0.2-1-0.3-1.5-0.5c-0.3-0.1-0.7-0.2-1-0.3
		c-0.5-0.1-1.1-0.3-1.7-0.4c-0.3-0.1-0.6-0.1-0.9-0.2c-0.7-0.1-1.4-0.3-2.1-0.4c-0.2,0-0.3-0.1-0.5-0.1c-0.9-0.1-1.8-0.2-2.7-0.3
		c0,0-0.1,0-0.1,0v3.4h10.9V68.6z"/>
	<path fill="#EAEAEA" d="M201.6,165c0.4,0.1,0.7,0.2,1.1,0.3c0.5,0.1,1,0.3,1.6,0.4c0.3,0.1,0.7,0.2,1,0.2c0.6,0.1,1.1,0.2,1.7,0.3
		c0.3,0.1,0.6,0.1,0.9,0.2c0.8,0.1,1.6,0.2,2.4,0.3c0.1,0,0.2,0,0.3,0v-3.6h-10.9v1.2c0.2,0.1,0.3,0.1,0.5,0.2
		C200.6,164.7,201.1,164.8,201.6,165z"/>
	<rect x="199.6" y="149.3" fill="#EAEAEA" width="10.9" height="9.5"/>
	<path fill="#EAEAEA" d="M185.7,157.1c0.2,0.2,0.4,0.3,0.7,0.5c0.5,0.4,1,0.7,1.5,1.1c0.1,0.1,0.2,0.1,0.3,0.2h6.2v-9.5h-10.9v6.1
		c0,0,0,0,0,0C184.3,156,185,156.6,185.7,157.1z"/>
	<rect x="199.6" y="134.8" fill="#EAEAEA" width="10.9" height="9.5"/>
	<rect x="183.6" y="134.8" fill="#EAEAEA" width="10.9" height="9.5"/>
	<path fill="#EAEAEA" d="M178.4,134.8h-9.7c0.1,0.2,0.2,0.4,0.2,0.6c0.2,0.5,0.4,0.9,0.6,1.4c0.1,0.3,0.3,0.7,0.5,1
		c0.2,0.5,0.4,0.9,0.7,1.3c0.2,0.3,0.3,0.7,0.5,1c0.2,0.4,0.5,0.9,0.7,1.3c0.2,0.3,0.3,0.6,0.5,0.9c0.3,0.4,0.5,0.9,0.8,1.3
		c0.1,0.2,0.3,0.4,0.4,0.7h4.8V134.8z"/>
	<rect x="199.6" y="121.3" fill="#EAEAEA" width="10.9" height="9.5"/>
	<rect x="183.6" y="121.3" fill="#EAEAEA" width="10.9" height="9.5"/>
	<rect x="167.5" y="121.3" fill="#EAEAEA" width="10.9" height="9.5"/>
	<path fill="#EAEAEA" d="M224.2,166.3c0.4-0.1,0.7-0.1,1.1-0.2c0.5-0.1,1.1-0.2,1.6-0.3c0.3-0.1,0.7-0.2,1-0.2
		c0.5-0.1,1.1-0.3,1.6-0.4c0.3-0.1,0.6-0.2,0.9-0.3c0.6-0.2,1.2-0.4,1.9-0.6c0.2-0.1,0.4-0.1,0.6-0.2v-0.8H222v3.4
		c0.2,0,0.4,0,0.6-0.1C223.2,166.4,223.7,166.4,224.2,166.3z"/>
	<path fill="#EAEAEA" d="M243.5,158.7c0.9-0.6,1.8-1.2,2.6-1.8c0.1-0.1,0.3-0.2,0.4-0.3c0.7-0.6,1.5-1.2,2.2-1.8
		c0.1-0.1,0.2-0.2,0.4-0.3v-5.1h-10.9v9.5h5.1C243.3,158.8,243.4,158.7,243.5,158.7z"/>
	<rect x="222" y="149.3" fill="#EAEAEA" width="10.9" height="9.5"/>
	<path fill="#EAEAEA" d="M258.2,143.7c0.3-0.4,0.6-0.9,0.8-1.3c0.2-0.3,0.4-0.6,0.5-0.9c0.2-0.4,0.5-0.9,0.7-1.3
		c0.2-0.3,0.3-0.6,0.5-1c0.2-0.4,0.4-0.9,0.7-1.3c0.2-0.3,0.3-0.7,0.5-1c0.2-0.5,0.4-0.9,0.6-1.4c0.1-0.2,0.2-0.4,0.2-0.6h-8.6v9.5
		h3.6C258,144.1,258.1,143.9,258.2,143.7z"/>
	<rect x="238.1" y="134.8" fill="#EAEAEA" width="10.9" height="9.5"/>
	<rect x="222" y="134.8" fill="#EAEAEA" width="10.9" height="9.5"/>
	<path fill="#EAEAEA" d="M264.5,129.4c0-0.1,0.1-0.2,0.1-0.3c0.2-0.6,0.3-1.3,0.4-1.9v-5.9h-10.9v9.5h9.9
		C264.3,130.3,264.4,129.8,264.5,129.4z"/>
	<rect x="238.1" y="121.3" fill="#EAEAEA" width="10.9" height="9.5"/>
	<rect x="222" y="121.3" fill="#EAEAEA" width="10.9" height="9.5"/>
</symbol>
<symbol id="strawberry">
	<path fill="#A0A0A0" d="M109.7,194.9c0.1-0.1,0.2-0.2,0.2-0.3c0.8-0.9,1.7-1.5,2.7-2c1.9-3.6-2-4.7-2-4.7c-1,1.5-1.1,3.6-0.9,5.2
		c-1.6-3.4-6-2.8-6-2.8c0.1,3.8,2.6,5,4.5,5.3c-1.7,0.1-4,0.5-5.4,2c0,0,1.6,3,4.3,1.5C107.7,197.5,108.6,196.1,109.7,194.9z"/>
	<path fill="#CECECE" d="M124.9,203.9c-0.3-12.4-8.3-12.3-8.3-12.3c-1.3,0.1-2.7,0.5-3.9,1.1c-1,0.5-1.9,1.2-2.7,2
		c-0.1,0.1-0.2,0.2-0.2,0.3c-1,1.2-2,2.6-2.6,4.1c-0.3,0.7-0.4,1.5-0.4,2.3c0,0.8,0.1,2.3,0.7,3c4,4.3,9,6.2,13.3,5
		S124.9,203.9,124.9,203.9z"/>
</symbol>
<symbol id="banana">
	<path fill="#EFEFEF" d="M324.6,194.6c-1.4,0-2.6,0.6-3.5,1.5c-0.9,0.9-1.5,2.1-1.5,3.5c0,1.4,0.6,2.6,1.5,3.5
		c0.9,0.9,2.1,1.5,3.5,1.5c1.4,0,2.6-0.6,3.5-1.5c0.9-0.9,1.5-2.1,1.5-3.5c0-1.4-0.6-2.6-1.5-3.5C327.2,195.1,326,194.6,324.6,194.6
		z"/>
	<path fill="#EFEFEF" d="M331.3,192.9c-1.7-1.7-4.1-2.8-6.7-2.8c-2.6,0-5,1.1-6.7,2.8c-1.7,1.7-2.8,4.1-2.8,6.7c0,2.6,1.1,5,2.8,6.7
		c1.7,1.7,4.1,2.8,6.7,2.8c2.6,0,5-1.1,6.7-2.8c1.7-1.7,2.8-4.1,2.8-6.7C334,196.9,333,194.6,331.3,192.9z M324.6,205.4
		c-3.2,0-5.8-2.6-5.8-5.8c0-3.2,2.6-5.8,5.8-5.8c3.2,0,5.8,2.6,5.8,5.8C330.4,202.8,327.8,205.4,324.6,205.4z"/>
	<path fill="#CECECE" d="M324.6,188.4c-6.2,0-11.1,5-11.1,11.1c0,6.2,5,11.1,11.1,11.1c6.2,0,11.1-5,11.1-11.1
		C335.7,193.4,330.7,188.4,324.6,188.4z M324.6,209c-2.6,0-5-1.1-6.7-2.8c-1.7-1.7-2.8-4.1-2.8-6.7c0-2.6,1.1-5,2.8-6.7
		c1.7-1.7,4.1-2.8,6.7-2.8c2.6,0,5,1.1,6.7,2.8c1.7,1.7,2.8,4.1,2.8,6.7c0,2.6-1.1,5-2.8,6.7C329.5,207.9,327.2,209,324.6,209z"/>
	<path fill="#CECECE" d="M324.6,193.7c-3.2,0-5.8,2.6-5.8,5.8c0,3.2,2.6,5.8,5.8,5.8c3.2,0,5.8-2.6,5.8-5.8
		C330.4,196.3,327.8,193.7,324.6,193.7z M328.1,203.1c-0.9,0.9-2.1,1.5-3.5,1.5c-1.4,0-2.6-0.6-3.5-1.5c-0.9-0.9-1.5-2.1-1.5-3.5
		c0-1.4,0.6-2.6,1.5-3.5c0.9-0.9,2.1-1.5,3.5-1.5c1.4,0,2.6,0.6,3.5,1.5c0.9,0.9,1.5,2.1,1.5,3.5C329.6,200.9,329,202.2,328.1,203.1
		z"/>
</symbol>
<symbol id="berries">
	<circle fill="#EAEAEA" cx="145.2" cy="201.1" r="5.1"/>
	<circle fill="#CECECE" cx="152.1" cy="195.1" r="5.1"/>
	<circle fill="#A0A0A0" cx="153.9" cy="204" r="6"/>
</symbol>
<symbol id="chocolate">
	<path fill="#A0A0A0" d="M405.3,195.5c-0.5-0.6-1.2-0.8-1.8-1.2c-0.9-0.7-1.4-1.6-1.6-2.8c-0.2-1-1.4-0.7-1.7,0
		c-0.7,1.8-2.8,2.5-3.7,4.2c-0.2,0.4-0.3,0.9-0.3,1.3c0,0.1,0,0.1,0,0.2c0.1,0.7,0.6,1.3,1.4,1.5c0,0,0.1,0,0.1,0
		c2,1.2,4.9,0.6,6.9-0.6C405.7,197.6,406,196.5,405.3,195.5z"/>
	<path fill="#A0A0A0" d="M415.3,198.2c-0.5-0.6-1.2-0.8-1.8-1.2c-0.9-0.7-1.4-1.6-1.6-2.8c-0.2-1-1.4-0.7-1.7,0
		c-0.7,1.8-2.8,2.5-3.7,4.2c-0.2,0.4-0.3,0.9-0.3,1.3c0,0.1,0,0.1,0,0.2c0.1,0.7,0.6,1.3,1.4,1.5c0,0,0.1,0,0.1,0
		c2,1.2,4.9,0.6,6.9-0.6C415.7,200.4,416,199.2,415.3,198.2z"/>
	<path fill="#A0A0A0" d="M406.8,204.7c-0.5-0.6-1.2-0.8-1.8-1.2c-0.9-0.7-1.4-1.6-1.6-2.8c-0.2-1-1.4-0.7-1.7,0
		c-0.7,1.8-2.8,2.5-3.7,4.2c-0.2,0.4-0.3,0.9-0.3,1.3c0,0.1,0,0.1,0,0.2c0.1,0.7,0.6,1.3,1.4,1.5c0,0,0.1,0,0.1,0
		c2,1.2,4.9,0.6,6.9-0.6C407.2,206.8,407.5,205.6,406.8,204.7z"/>
</symbol>
<symbol id="raspberry">
	<path fill="none" d="M247.9,200.6c0,0,0-0.1,0-0.1C247.9,200.5,247.9,200.5,247.9,200.6C247.9,200.6,247.9,200.6,247.9,200.6z"/>
	<path fill="none" d="M249.5,198.2C249.5,198.2,249.5,198.2,249.5,198.2C249.5,198.1,249.5,198.1,249.5,198.2
		C249.5,198.1,249.5,198.2,249.5,198.2z"/>
	<path fill="#A0A0A0" d="M259.5,201.6c0-1.4-0.9-2.6-2.2-3.1c0.2-0.4,0.3-0.8,0.3-1.3c0-1.7-1.3-3.1-3-3.2c-0.5-1.3-1.7-2.2-3.1-2.3
		c-0.8,0.9-1.9,1.6-3.2,1.9c-0.2,0.4-0.3,0.8-0.4,1.3c-0.5-0.3-1-0.4-1.6-0.4c-1.6,0-3,1.2-3.2,2.8c-0.2,0-0.4-0.1-0.5-0.1
		c-1.8,0-3.2,1.5-3.2,3.2s1.5,3.2,3.2,3.2c0,0,0,0,0.1,0c0.3,1.5,1.6,2.6,3.2,2.6c0.2,0,0.3,0,0.5-0.1c0,0,0,0,0,0.1
		c0,1.8,1.5,3.2,3.2,3.2c1.1,0,2.1-0.6,2.7-1.5c0.6,0.5,1.3,0.8,2.1,0.8c1.8,0,3.2-1.5,3.2-3.2c0-0.4-0.1-0.7-0.2-1
		C258.7,204.1,259.5,203,259.5,201.6z M249.5,198.2C249.5,198.2,249.5,198.1,249.5,198.2C249.5,198.1,249.5,198.1,249.5,198.2
		C249.5,198.2,249.5,198.2,249.5,198.2z M247.9,200.6C247.9,200.6,247.9,200.6,247.9,200.6c-0.1-0.1,0-0.1,0-0.1
		C247.9,200.5,247.9,200.6,247.9,200.6z"/>
	<path fill="#7C7C7C" d="M235,195.3c0,0,4.2,4.4,9.7-1.3C244.7,194,240.1,191.3,235,195.3z"/>
	<path fill="#7C7C7C" d="M251.5,191.7c1.6-1.7,2.3-3.8,2.3-3.8c-7.9,1.2-8.9,4.3-9.1,5l-1.7-3.4l-1.6,1.2c0.9,1.8,3.3,3.2,3.3,3.2
		l0.4-0.3l-0.3-0.6c1.3,0.6,2.5,0.7,3.5,0.5C249.6,193.4,250.7,192.6,251.5,191.7z"/>
</symbol>
<symbol id="egg">
	<path fill="#EFEFEF" d="M299.5,199.9c-0.6-3.2-2.4-5.9-5-7.8c-2.6-1.8-6-3.7-9.2-3.9c-0.4,0-0.7,0.2-0.9,0.4
		c-4.8,2.8-12.5,7.7-11.1,14.1c1.5,7.1,10.1,8.6,16.2,8.8c3.1,0.1,6.1-0.7,8-3.2C299.4,206,300,202.9,299.5,199.9z M284.2,203.1
		c-3,0-5.4-2.4-5.4-5.4c0-3,2.4-5.4,5.4-5.4c3,0,5.4,2.4,5.4,5.4C289.7,200.7,287.2,203.1,284.2,203.1z"/>
	<circle fill="#CECECE" cx="284.2" cy="197.7" r="5.4"/>
</symbol>
<symbol id="chicken">
	<path fill="#EFEFEF" d="M53.9,198c0.1-0.5,0.3-0.9,0.4-1.2h-7c0.1-0.3,0.1-0.5,0.1-0.8c0-1.9-1.6-3.5-3.5-3.5s-3.5,1.6-3.5,3.5
		c0,1.3,0.7,2.3,1.6,3c-1,0.6-1.6,1.7-1.6,3c0,1.9,1.6,3.5,3.5,3.5c1.9,0,3.5-1.6,3.5-3.5H55C54,201,53.5,199.8,53.9,198z"/>
	<path fill="#CECECE" d="M82,188.8c-8.2-3.4-17.9,0.5-24.7,5.5c-1.2,0.5-2.3,1.2-2.9,2.5c-0.2,0.4-0.3,0.8-0.4,1.2
		c-0.4,1.7,0.1,3,1.1,4c1.2,1.3,3.1,2.1,4.7,2.8c7.5,3.5,19.4,8.3,26.9,2.1C92.8,201.8,88.5,191.5,82,188.8z"/>
</symbol>
<symbol id="bacon">
	<path fill="#CECECE" d="M198.6,195.7c1.2-0.8,2.4-1.9,3.8-2.3c2.6-0.7,4,1,5.8,2.6c4.4,4.2,10.7,4.2,14.3-0.5c0-1.5,0-3,0-4.5
		c-1.7,2.2-3.5,4.6-5.6,5.4c-5.7,2.2-11.3-6.5-17-4.5c-1.6,0.6-3,1.9-4.6,2.7c-6.2,3-12.9-4.2-19.2-1.7c0,0.5-0.1,0.9-0.1,1.4
		c4.8,1.5,10.3,3.5,15.4,3.6C194.2,198,196.4,197.2,198.6,195.7z"/>
	<path fill="#CECECE" d="M213.5,205c-1.9-0.4-3.7-1.2-5.2-2.3c-2.7-2-4.3-3.7-8-1.7c-3.6,1.9-6.9,3.4-11.2,3.3
		c-4.7-0.2-8.7-3.1-13.3-3.4c0,0.9,0,1.8,0.1,2.7c5.7,4.7,12.6,5.7,18.8,2.7c2.1-1,4.1-2.5,6.3-2.9c3.5-0.6,6.9,1.5,10.2,3.2
		c3.3,1.7,7.1,3,10.3,0.8c0.2-0.1,0.4-0.3,0.5-0.5c0.2-0.4,0.2-0.9,0.3-1.4c0-0.6,0.1-1.3,0.1-1.9C219.6,205,216.6,205.6,213.5,205z
		"/>
	<path fill="#CECECE" d="M206.8,195.9c-4.4-3.6-6.2,0.1-9.6,1.8c-1.8,0.9-3.8,1.2-5.8,1.1c-5.2-0.2-10.6-2-15.5-3.6
		c-0.1,1.5-0.1,3.1-0.2,4.6c3.9,0.2,7.2,2.5,11.1,3.2c3,0.5,6.1,0.2,8.9-0.8c2.1-0.8,3.6-2.3,5.5-3.1c2.3-1,4,0.1,5.9,1.5
		c4.7,3.5,9.9,4.9,15.1,1.8c0.1-1.8,0.1-3.6,0.1-5.3c-1.7,1.8-4,3-6.6,3.2C211.7,200.5,209.7,198.3,206.8,195.9z"/>
	<path fill="#FFFFFF" d="M208.2,196c-1.8-1.7-3.2-3.3-5.8-2.6c-1.4,0.4-2.6,1.5-3.8,2.3c-2.2,1.5-4.4,2.2-7.1,2.2
		c-5.1-0.1-10.6-2-15.4-3.6c0,0.3-0.1,0.7-0.1,1c5,1.6,10.3,3.3,15.5,3.6c2,0.1,4-0.2,5.8-1.1c3.4-1.7,5.2-5.4,9.6-1.8
		c2.9,2.4,4.9,4.6,9.1,4.4c2.7-0.2,4.9-1.4,6.6-3.2c0-0.5,0-1,0-1.5C218.9,200.3,212.7,200.3,208.2,196z"/>
	<path fill="#FFFFFF" d="M207.3,200.6c-1.9-1.4-3.6-2.5-5.9-1.5c-1.9,0.9-3.5,2.4-5.5,3.1c-2.8,1-5.9,1.3-8.9,0.8
		c-3.9-0.7-7.2-2.9-11.1-3.2c0,0.3,0,0.6,0,1c4.6,0.3,8.6,3.2,13.3,3.4c4.2,0.1,7.6-1.3,11.2-3.3c3.7-2,5.3-0.3,8,1.7
		c1.6,1.2,3.3,1.9,5.2,2.3c3.1,0.6,6.1,0,8.8-1.4c0-0.4,0-0.8,0.1-1.1C217.1,205.5,212,204.1,207.3,200.6z"/>
</symbol>
<symbol id="tomato">
	<path fill="#A0A0A0" d="M9.6,192.6v13.1h6v-15C13.4,190.9,11.4,191.6,9.6,192.6z"/>
	<path fill="#A0A0A0" d="M2,205.7h5.1v-11.3C4,197.2,2,201.2,2,205.7z"/>
	<path fill="#A0A0A0" d="M18.1,190.7v15h6v-13.3C22.3,191.4,20.3,190.8,18.1,190.7z"/>
	<path fill="#A0A0A0" d="M32.2,205.7c0-4.7-2.2-8.9-5.5-11.7v11.7H32.2z"/>
	<path fill="#7C7C7C" d="M7.1,194.4v11.3h2.5v-13.1C8.7,193.1,7.9,193.7,7.1,194.4z"/>
	<path fill="#7C7C7C" d="M17.1,190.6c-0.5,0-1,0-1.5,0.1v15h2.5v-15C17.8,190.6,17.4,190.6,17.1,190.6z"/>
	<path fill="#7C7C7C" d="M26.6,194c-0.8-0.6-1.6-1.2-2.5-1.6v13.3h2.5V194z"/>
</symbol>
<symbol id="cream"><path fill="#EAEAEA" d="M453.7,195.6c-0.8-1.1-2.1-1.6-2.8-2.7c-0.6-1-0.8-1.7-1.7-2.6c-1.2-1.1-2.7-1.7-3.7-3.1
	c-0.6-0.9-1-1.8-2.2-1.9c-1.1-0.2-2.1,0.7-3,1.2c-1.8,1.1-3.5,2.3-5.3,3.4c-1,0.7-2,1.2-2.3,2.5c-0.2,0.9,0.4,1.8,0.6,2.6
	c-3.2,0.3-6.1,2.4-6.9,5.7c-3.3,13.5,16.9,14.3,24.5,10c2.5-1.4,5.1-3.3,5.2-6.4C456.4,201.5,455.4,197.8,453.7,195.6z"/>
</symbol>
<symbol id="nuts">
	<path fill="#EAEAEA" d="M349.6,203.5c0,0,5.7-7.7,11.7,0C361.3,203.5,356.2,209.2,349.6,203.5z"/>
	<path fill="#EAEAEA" d="M358.6,195.7c0,0,5.7-7.7,11.7,0C370.3,195.7,365.2,201.4,358.6,195.7z"/>
	<path fill="#EAEAEA" d="M366,203.5c0,0,5.7-7.7,11.7,0C377.7,203.5,372.6,209.2,366,203.5z"/>
	<path fill="#EAEAEA" d="M374.3,195.7c0,0,5.7-7.7,11.7,0C386,195.7,380.9,201.4,374.3,195.7z"/>
</symbol>
<symbol id="syrup" opacity="0.5">
	<path fill="#CECECE" d="M189.9,90.9c-3.1-3.7-1.1-9.2,2.3-12.7c4.4-4.5,12.4-7.2,17.8-3.7c3.6,2.3,4.8,6.6,8,9.3
		c3.4,2.9,8.4,3.6,13.1,3.7c4.7,0.1,9.5-0.2,13.9,1.3c3.5,1.1,6.6,3.4,8,6.5c1.4,3,0.9,6.8-1.6,9.2c-1.1,1.1-2.6,1.8-3.9,2.7
		c-5.5,3.8-8.4,10.3-7.3,16.4c1,5.3,4.7,9.8,7.4,14.5s4.5,10.6,1.6,15.3c-3.1,5.1-10.6,6.8-17.1,6.7c-6.6-0.1-13.2-1.5-19.7-0.3
		c-3.6,0.6-7.1,2.1-10.7,1.8c-4.8-0.4-8.7-3.7-10.5-7.6c-1.8-3.9-1.9-8.3-1.7-12.5c0.1-1.9,0.3-3.9-0.3-5.7c-0.6-1.9-1.9-3.5-3.3-5
		c-3.4-3.4-7.8-6-11.3-9.3c-3.6-3.3-6.4-7.7-5.6-12.3c0.8-4.7,5.4-8.3,10.3-10.3c2.3-0.9,4.8-1.6,6.9-2.9c2.1-1.3,3.9-3.3,3.8-5.5"
		/>
</symbol>
</svg>
